<svg xmlns="http://www.w3.org/2000/svg" width="445.572" height="279.816" viewBox="0 0 445.572 279.816">
  <g id="Group_9803" data-name="Group 9803" transform="translate(-1405.812 -754.183)">
    <g id="Group_8381" data-name="Group 8381">
      <rect id="Rectangle_3109" data-name="Rectangle 3109" width="85.63" height="66.038" transform="translate(1421.425 859.371)" fill="#e8505b"/>
      <rect id="Rectangle_3110" data-name="Rectangle 3110" width="85.63" height="66.038" transform="translate(1421.425 859.371)" fill="#f0f5ff"/>
      <path id="Path_13919" data-name="Path 13919" d="M218.164,298.043c-.082,0-.164-14.71-.164-32.871s.082-32.871.164-32.871.164,14.71.164,32.871S218.247,298.043,218.164,298.043Z" transform="translate(1267.442 626.906)"/>
      <rect id="Rectangle_3111" data-name="Rectangle 3111" width="6.574" height="7.421" transform="translate(1493.249 910.403)" fill="#f5f5f5"/>
      <rect id="Rectangle_3112" data-name="Rectangle 3112" width="9.697" height="14.094" transform="translate(1447.558 859.535)" fill="#1d1d1d"/>
      <rect id="Rectangle_3113" data-name="Rectangle 3113" width="9.697" height="14.094" transform="translate(1447.558 911.144)" fill="#1d1d1d"/>
      <path id="Path_13920" data-name="Path 13920" d="M243.4,232.5Z" transform="translate(1262.916 626.871)" fill="#263238"/>
      <rect id="Rectangle_3114" data-name="Rectangle 3114" width="85.63" height="66.038" transform="translate(1492.756 859.289)" fill="#b7e1fe"/>
      <path id="Path_13921" data-name="Path 13921" d="M304.882,297.943c-.082,0-.082-14.71-.082-32.871s0-32.871.082-32.871.164,14.71.164,32.871S304.964,297.943,304.882,297.943Z" transform="translate(1251.973 626.924)"/>
      <rect id="Rectangle_3115" data-name="Rectangle 3115" width="6.574" height="7.421" transform="translate(1564.498 910.321)" fill="#1d1d1d"/>
      <rect id="Rectangle_3116" data-name="Rectangle 3116" width="9.697" height="14.094" transform="translate(1518.807 859.453)" fill="#1d1d1d"/>
      <rect id="Rectangle_3117" data-name="Rectangle 3117" width="9.697" height="14.094" transform="translate(1518.807 911.061)" fill="#1d1d1d"/>
      <path id="Path_13922" data-name="Path 13922" d="M330.1,232.4Z" transform="translate(1247.464 626.889)" fill="#263238"/>
      <rect id="Rectangle_3118" data-name="Rectangle 3118" width="85.63" height="66.038" transform="translate(1497.522 793.217)" fill="#f0f5ff"/>
      <path id="Path_13923" data-name="Path 13923" d="M310.764,217.543c-.082,0-.164-14.71-.164-32.871s.082-32.871.164-32.871.164,14.71.164,32.871S310.847,217.543,310.764,217.543Z" transform="translate(1250.939 641.253)"/>
      <rect id="Rectangle_3119" data-name="Rectangle 3119" width="6.574" height="7.421" transform="translate(1569.346 844.25)" fill="#f5f5f5"/>
      <rect id="Rectangle_3120" data-name="Rectangle 3120" width="9.697" height="14.094" transform="translate(1523.655 793.464)" fill="#1d1d1d"/>
      <rect id="Rectangle_3121" data-name="Rectangle 3121" width="9.697" height="14.094" transform="translate(1523.655 844.989)" fill="#1d1d1d"/>
      <path id="Path_13924" data-name="Path 13924" d="M336,152Z" transform="translate(1246.413 641.217)" fill="#263238"/>
      <path id="Path_13925" data-name="Path 13925" d="M291.03,400.625V392.9H132.837a2.137,2.137,0,0,0-2.137,2.137v3.534a2.054,2.054,0,0,0,2.137,2.054h4.355v3.534a2.054,2.054,0,0,1-2.054,2.055h-2.383a2.137,2.137,0,0,0-2.054,2.137v3.534a2.137,2.137,0,0,0,2.054,2.137H291.03v-7.807h-36.9v-5.588Zm-115.871,0h9.451v5.588h-9.451Zm-6.328,5.588H159.3v-5.588h9.533Zm22.106-5.588h9.451v5.588h-9.451Zm15.778,0h9.451v5.588h-9.451Zm15.778,0h9.533v5.588h-9.533Zm-78.973,0h9.451v5.588H143.52ZM247.8,406.213h-9.45v-5.588H247.8Z" transform="translate(1283.001 598.285)" fill="#455a64"/>
      <path id="Path_13926" data-name="Path 13926" d="M465.2,233.7a2.794,2.794,0,0,0-.082-3.945l-26.708-25.229a2.712,2.712,0,0,0-3.862,0h0a2.794,2.794,0,0,0-.164,4.027l10.683,11.258-5.588,5.342-2.876-2.3-20.134,23.01L405.7,235.588l-12.9,38.131,2.548,51.772h29.831l-2.054-61.552,19.969-28.516.164-6.739,5.67-5.917,12.409,11.094A2.794,2.794,0,0,0,465.2,233.7Z" transform="translate(1236.29 632)" fill="#fff"/>
      <path id="Path_13927" data-name="Path 13927" d="M382.947,317.752c-.164,0-.247-47.17-.247-105.435s.082-105.517.247-105.517.164,47.253.164,105.517S383.029,317.752,382.947,317.752Z" transform="translate(1238.09 649.272)" fill="#263238"/>
      <path id="Path_13928" data-name="Path 13928" d="M464.3,317.46,482.379,267l-6.821-2.712v-9.779l49.636-.74a4.849,4.849,0,0,0,4.684-4.355l7.314-64.756a6,6,0,0,1,5.917-5.259h0a5.917,5.917,0,0,1,5.917,6.163l-2.794,66.811H572.2l.822,12.162-76.59,3.041-19.969,49.06Z" transform="translate(1223.547 636.334)" fill="#b7e1fe"/>
      <path id="Path_13929" data-name="Path 13929" d="M464.128,333.895l-64.428.575v4.273l26.708-.329,42.568-.329L572.11,323.54,560.441,279H490.589a7.314,7.314,0,0,0-6.163,3.123Z" transform="translate(1235.06 618.584)" fill="#3490c4"/>
      <path id="Path_13930" data-name="Path 13930" d="M430.342,118.028,383.5,267.51l.329,41.582H398.7V267.757l38.459-149.4,104.038-.575,19.887,155.646h11.751l-24.16-154.5a8.875,8.875,0,0,0-8.711-7.232H438.806A8.875,8.875,0,0,0,430.342,118.028Z" transform="translate(1237.947 648.399)" fill="#b7e1fe"/>
      <path id="Path_13931" data-name="Path 13931" d="M373.2,391.955V351.934l8.793-8.053,82.178-1.068,14.792-12a16.764,16.764,0,0,1,9.7-3.78l15.778-.9s7.15-4.849,13.97-9.7a51.69,51.69,0,0,1,29.748-9.533h45.609a6.246,6.246,0,0,1,6.163,6.246v78.809Z" transform="translate(1239.783 613.611)" fill="#b7e1fe"/>
      <rect id="Rectangle_3122" data-name="Rectangle 3122" width="227.552" height="13.132" transform="translate(1612.243 992.664)" fill="#455a64"/>
      <path id="Path_13932" data-name="Path 13932" d="M386.6,404.176a28.1,28.1,0,1,0,8.493-19.807A28.187,28.187,0,0,0,386.6,404.176Z" transform="translate(1237.396 601.227)" fill="#455a64"/>
      <path id="Path_13933" data-name="Path 13933" d="M386.6,410.1h0a28.187,28.187,0,0,0,56.292.822h0Z" transform="translate(1237.395 595.22)" fill="#455a64"/>
      <path id="Path_13934" data-name="Path 13934" d="M396.8,406.076a19.723,19.723,0,1,0,5.98-13.9A19.8,19.8,0,0,0,396.8,406.076Z" transform="translate(1235.578 599.408)" fill="#fff"/>
      <path id="Path_13936" data-name="Path 13936" d="M406.2,407.916a12,12,0,1,0,3.6-8.489,12.08,12.08,0,0,0-3.6,8.489Z" transform="translate(1233.902 597.732)" fill="#455a64"/>
      <path id="Path_13937" data-name="Path 13937" d="M554.1,404.176A28.187,28.187,0,1,0,582.7,376.4a28.187,28.187,0,0,0-28.6,27.776Z" transform="translate(1207.544 601.226)" fill="#455a64"/>
      <path id="Path_13938" data-name="Path 13938" d="M554.1,410.1h0a28.187,28.187,0,0,0,56.292.822h0Z" transform="translate(1207.543 595.22)" fill="#455a64"/>
      <path id="Path_13939" data-name="Path 13939" d="M564.3,406.076a19.723,19.723,0,1,0,5.98-13.9,19.805,19.805,0,0,0-5.98,13.9Z" transform="translate(1205.726 599.408)" fill="#fff"/>
      <path id="Path_13941" data-name="Path 13941" d="M573.7,407.916A12.08,12.08,0,1,0,585.944,396,12.08,12.08,0,0,0,573.7,407.916Z" transform="translate(1204.051 597.732)" fill="#455a64"/>
      <path id="Path_13942" data-name="Path 13942" d="M617.057,381.555a.246.246,0,0,0-.082-.164,4.6,4.6,0,0,1-.411-.657l-.575-.9-.822-1.315a37.059,37.059,0,0,0-6.328-7.4c-.74-.74-1.644-1.4-2.465-2.137l-2.876-2.054c-.986-.575-2.054-1.315-3.2-1.89l-1.726-.9-1.89-.822a39.283,39.283,0,0,0-8.136-2.465,41.5,41.5,0,0,0-9.122-.74,39.28,39.28,0,0,0-8.957,1.561,42.9,42.9,0,0,0-7.889,3.287l-1.808.986-1.644,1.068c-1.068.657-2.055,1.479-3.041,2.219l-2.63,2.3-2.219,2.3a42.4,42.4,0,0,0-5.588,7.971,7.811,7.811,0,0,0-.74,1.4,5.507,5.507,0,0,1-.493.986l-.247.657c-.082.164-.164.164-.164.164a.247.247,0,0,1,.082-.164l.247-.657.493-1.068a10.028,10.028,0,0,1,.657-1.4,37.965,37.965,0,0,1,5.506-8.053,30.918,30.918,0,0,1,2.3-2.383,18.17,18.17,0,0,1,2.63-2.3c.986-.74,1.89-1.561,3.041-2.3l1.644-1.068,1.726-.986a38.952,38.952,0,0,1,17.093-4.931,42.241,42.241,0,0,1,9.2.74,36.9,36.9,0,0,1,8.218,2.548l1.89.822,1.726.9c1.151.575,2.219,1.315,3.287,1.972a24.573,24.573,0,0,1,2.794,2.054A21.95,21.95,0,0,1,609,370.872a39.53,39.53,0,0,1,6.328,7.56,7.314,7.314,0,0,1,.74,1.315l.575.986.329.575a.657.657,0,0,1,.082.246Z" transform="translate(1209.344 604.205)" fill="#263238"/>
      <path id="Path_13943" data-name="Path 13943" d="M449.567,386.948a.657.657,0,0,0-.082-.247l-.247-.657-.493-1.068-.657-1.479a39.444,39.444,0,0,0-5.342-8.711,35.09,35.09,0,0,0-11.423-9.779,31.063,31.063,0,0,0-8.464-2.794,40.35,40.35,0,0,0-9.533-.9,45.2,45.2,0,0,0-9.533,1.233,35.584,35.584,0,0,0-8.3,3.205,40.678,40.678,0,0,0-11.834,9.45,45.034,45.034,0,0,0-5.835,8.382,22.438,22.438,0,0,0-1.233,2.548l-.329.575-.164.247a.657.657,0,0,1,.082-.247,4.851,4.851,0,0,1,.329-.657l1.15-2.548a51.447,51.447,0,0,1,5.752-8.547,43.471,43.471,0,0,1,11.834-9.533,34.843,34.843,0,0,1,8.464-3.287,45.277,45.277,0,0,1,9.615-1.233,41.087,41.087,0,0,1,9.615.9,29.09,29.09,0,0,1,8.547,2.876,34.761,34.761,0,0,1,11.5,9.861,42.814,42.814,0,0,1,5.259,8.875,13.07,13.07,0,0,0,.657,1.479c.164.411.246.822.411,1.15a2.55,2.55,0,0,1,.164.657A.658.658,0,0,1,449.567,386.948Z" transform="translate(1239.266 603.99)" fill="#263238"/>
      <rect id="Rectangle_3123" data-name="Rectangle 3123" width="124.747" height="14.587" transform="translate(1488.236 991.185)" fill="#263238"/>
      <path id="Path_13944" data-name="Path 13944" d="M367.5,399.616A3.7,3.7,0,1,1,363.8,396a3.7,3.7,0,0,1,3.7,3.616Z" transform="translate(1242.117 597.732)" fill="#455a64"/>
      <rect id="Rectangle_3124" data-name="Rectangle 3124" width="10.437" height="206.826" transform="translate(1600.903 758.949)" fill="#455a64"/>
      <path id="Path_13945" data-name="Path 13945" d="M534.4,376.264c0,.164-17.586.247-39.2.247s-39.2-.082-39.2-.247,17.5-.164,39.2-.164S534.4,376.182,534.4,376.264Z" transform="translate(1225.027 601.279)" fill="#263238"/>
      <path id="Path_13946" data-name="Path 13946" d="M531.864,365.2c-.082,0-.164-7.643-.164-17.093s.082-17.011.164-17.011.247,7.643.247,17.011S532.029,365.2,531.864,365.2Z" transform="translate(1211.536 609.299)" fill="#263238"/>
      <rect id="Rectangle_3125" data-name="Rectangle 3125" width="21.284" height="9.483" transform="translate(1599.752 754.183)" fill="#263238"/>
      <rect id="Rectangle_3126" data-name="Rectangle 3126" width="13.642" height="27.3" transform="translate(1599.259 964.066)" fill="#263238"/>
      <rect id="Rectangle_3127" data-name="Rectangle 3127" width="85.63" height="66.038" transform="translate(1495.55 925.36)" fill="#e8505b"/>
      <rect id="Rectangle_3128" data-name="Rectangle 3128" width="85.63" height="66.038" transform="translate(1495.55 925.36)" fill="#f0f5ff"/>
      <path id="Path_13947" data-name="Path 13947" d="M308.364,378.343c-.082,0-.164-14.71-.164-32.871s.082-32.871.164-32.871.164,14.71.164,32.871S308.447,378.343,308.364,378.343Z" transform="translate(1251.367 612.596)"/>
      <rect id="Rectangle_3129" data-name="Rectangle 3129" width="6.574" height="7.421" transform="translate(1567.374 976.393)" fill="#f5f5f5"/>
      <rect id="Rectangle_3130" data-name="Rectangle 3130" width="9.697" height="14.094" transform="translate(1521.683 925.524)" fill="#1d1d1d"/>
      <rect id="Rectangle_3131" data-name="Rectangle 3131" width="9.697" height="14.094" transform="translate(1521.683 977.132)" fill="#1d1d1d"/>
      <path id="Path_13948" data-name="Path 13948" d="M333.6,312.8Z" transform="translate(1246.84 612.56)" fill="#263238"/>
      <rect id="Rectangle_3132" data-name="Rectangle 3132" width="85.63" height="66.038" transform="translate(1405.812 925.36)" fill="#b7e1fe"/>
      <path id="Path_13949" data-name="Path 13949" d="M199.082,378.343c-.082,0-.082-14.71-.082-32.871s0-32.871.082-32.871.164,14.71.164,32.871S199.164,378.343,199.082,378.343Z" transform="translate(1270.828 612.596)"/>
      <rect id="Rectangle_3133" data-name="Rectangle 3133" width="6.574" height="7.421" transform="translate(1477.553 976.393)" fill="#1d1d1d"/>
      <rect id="Rectangle_3134" data-name="Rectangle 3134" width="9.697" height="14.094" transform="translate(1431.862 925.524)" fill="#1d1d1d"/>
      <rect id="Rectangle_3135" data-name="Rectangle 3135" width="9.697" height="14.094" transform="translate(1431.862 977.132)" fill="#1d1d1d"/>
      <path id="Path_13950" data-name="Path 13950" d="M224.3,312.8Z" transform="translate(1266.319 612.56)" fill="#263238"/>
      <path id="Path_13951" data-name="Path 13951" d="M653.5,334.6c4.438,1.068,8.136,5.588,8.053,10.108a10.437,10.437,0,0,1-8.053,9.7" transform="translate(1189.829 608.675)" fill="#e8505b"/>
      <g id="Group_8371" data-name="Group 8371" transform="translate(1843.329 943.274)">
        <path id="Path_13952" data-name="Path 13952" d="M653.5,334.6c4.438,1.068,8.136,5.588,8.053,10.108a10.437,10.437,0,0,1-8.053,9.7" transform="translate(-653.5 -334.6)" fill="#fff"/>
      </g>
      <rect id="Rectangle_3136" data-name="Rectangle 3136" width="3.78" height="24.99" transform="translate(1839.713 940.728)" fill="#e8505b"/>
      <rect id="Rectangle_3137" data-name="Rectangle 3137" width="3.78" height="24.99" transform="translate(1839.713 940.728)" fill="#b7e1fe"/>
    </g>
  </g>
</svg>
