<svg xmlns="http://www.w3.org/2000/svg" width="452.172" height="415.988" viewBox="0 0 452.172 415.988">
  <g id="Group_9803" data-name="Group 9803" transform="translate(39.503 66.05)">
    <path id="Path_14040" data-name="Path 14040" d="M493.671,102.531c-21.154.207-41.893-6.844-63.047-9.54s-45.211.622-58.692,17.006-12.858,38.782-26.961,52.885-40.027,13.9-56.618,26.961-21.154,43.345-28.62,67.2c-10.577,34.012-35.464,61.6-59.522,87.934-5.6,6.222-13.273,13.066-21.361,10.577s-11.2-13.9-12.029-23.021l-16.8-221.08c-2.489-33.183-3.94-69.891,16.591-96.023C190.463-15.061,234.431-19,273.006-20.66l151.6-6.222c27.791-1.037,56-2.074,83.164,3.733s80.675,27.791,68.232,64.914C564.806,75.57,529.342,101.909,493.671,102.531Z" transform="translate(-188.131 -38.36)" fill="#fff"/>
    <path id="Path_14090" data-name="Path 14090" d="M506.608,107.413c-21.947.215-43.464-7.1-65.411-9.9s-46.907.646-60.893,17.644-13.34,40.236-27.972,54.868S310.8,184.444,293.592,198s-21.947,44.97-29.693,69.715c-10.974,35.288-36.794,63.9-61.753,91.231-5.81,6.455-13.771,13.556-22.162,10.974S168.364,355.5,167.5,346.035L150.074,116.666c-2.582-34.427-4.088-72.512,17.213-99.623,24.744-31.63,70.36-35.718,110.381-37.439l157.288-6.455c28.833-1.076,58.1-2.152,86.283,3.873s83.7,28.833,70.79,67.348C580.411,79.441,543.617,106.768,506.608,107.413Z" transform="translate(-181.277 -20.524)" fill="#fff" opacity="0.22"/>
  </g>
</svg>
