<svg xmlns="http://www.w3.org/2000/svg" width="707.985" height="766.777" viewBox="0 0 707.985 766.777">
  <g id="Group_9802" data-name="Group 9802" transform="translate(-1454.586 259.416)">
    <g id="Group_8380" data-name="Group 8380" transform="translate(1656.338 935.086) rotate(-110)" opacity="0.143">
      <path id="Path_14038" data-name="Path 14038" d="M836.26,157.756c-44.9,4.371-83.847,33.38-116.829,64.375s-63.58,65.965-103.318,87.82-89.807,31-131.929,52.056c-31.393,15.9-60,39.738-75.1,71.528s-15.9,71.13,3.576,100.536c34.174,52.056,108.881,52.056,170.872,46.1L823.314,683.539c61.2-5.563,121.827-139.533,163.551-185.231,34.572-37.751,42.519-95.371,29.8-145.043C998.787,282.532,921.3,149.808,836.26,157.756Z" transform="translate(0 0)" fill="#fff"/>
    </g>
    <g id="Group_8379" data-name="Group 8379" transform="translate(1678.765 873.771) rotate(-110)">
      <path id="Path_14038-2" data-name="Path 14038" d="M778.728,157.711c-39.011,3.8-72.843,29-101.5,55.927S622,270.945,587.473,289.932s-78.021,26.928-114.615,45.225c-27.273,13.809-52.129,34.523-65.248,62.141s-13.809,61.8,3.107,87.342c29.69,45.225,94.592,45.225,148.447,40.046l208.317,89.805c53.165-4.833,105.839-121.221,142.087-160.922,30.035-32.8,36.939-82.854,25.892-126.008C919.925,266.112,852.606,150.806,778.728,157.711Z" transform="translate(0 0)" fill="#fff"/>
    </g>
  </g>
</svg>
