<?xml version="1.0" encoding="iso-8859-1"?>
<!-- Generator: Adobe Illustrator 19.0.0, SVG Export Plug-In . SVG Version: 6.00 Build 0)  -->
<svg version="1.1" id="Capa_1" xmlns="http://www.w3.org/2000/svg" xmlns:xlink="http://www.w3.org/1999/xlink" x="0px" y="0px"
	 viewBox="0 0 512 512" style="enable-background:new 0 0 512 512;" xml:space="preserve">
<path style="fill:#193651;" d="M256,480c-3.2,0-5.6,0-8.8,0l0.8-16c4.8,0,10.4,0,15.2,0l0.8,16C261.6,480,258.4,480,256,480z
	 M288.8,477.6l-2.4-16c4.8-0.8,10.4-1.6,15.2-2.4l3.2,16C299.2,476,294.4,476.8,288.8,477.6z M328.8,468l-4.8-15.2
	c4.8-1.6,9.6-3.2,14.4-5.6l6.4,14.4C339.2,464,334.4,466.4,328.8,468z M366.4,451.2l-8-13.6c4.8-2.4,8.8-5.6,12.8-8l8.8,13.6
	C376,444.8,371.2,448,366.4,451.2z M400.8,427.2l-10.4-12c4-3.2,8-6.4,11.2-10.4l11.2,11.2C408.8,420,404.8,423.2,400.8,427.2z
	 M429.6,397.6l-12-10.4c3.2-4,6.4-8,9.6-12L440,384C436.8,388.8,432.8,393.6,429.6,397.6z M452.8,363.2l-14.4-8
	c2.4-4.8,4.8-8.8,7.2-13.6L460,348C457.6,353.6,455.2,358.4,452.8,363.2z M468.8,324.8l-15.2-4.8c1.6-4.8,3.2-9.6,4-15.2l15.2,4
	C472,314.4,471.2,320,468.8,324.8z M478.4,284.8l-16-2.4c0.8-4.8,0.8-10.4,1.6-15.2l16,0.8C479.2,273.6,479.2,279.2,478.4,284.8z
	 M48,243.2l-16-0.8c0-5.6,0.8-11.2,1.6-16.8l16,2.4C48.8,232.8,48.8,238.4,48,243.2z M54.4,205.6l-15.2-4c1.6-5.6,3.2-10.4,4.8-16
	l15.2,4.8C56.8,195.2,55.2,200.8,54.4,205.6z M67.2,168.8l-14.4-6.4c2.4-4.8,4.8-9.6,7.2-15.2l14.4,8
	C71.2,160,68.8,164.8,67.2,168.8z M86.4,136l-12.8-9.6c3.2-4.8,6.4-8.8,10.4-12.8L96,124C92,127.2,88.8,132,86.4,136z M111.2,106.4
	L100,95.2c4-4,8-7.2,12-11.2l10.4,12C118.4,99.2,115.2,103.2,111.2,106.4z M140.8,82.4L132,68.8c4.8-3.2,9.6-5.6,14.4-8.8l8,13.6
	C149.6,76.8,145.6,80,140.8,82.4z M175.2,64l-6.4-14.4c4.8-2.4,10.4-4,15.2-5.6l4.8,15.2C184.8,60.8,180,62.4,175.2,64z M212,52.8
	l-3.2-16c5.6-0.8,11.2-2.4,16-3.2l2.4,16C221.6,50.4,216.8,52,212,52.8z M265.6,48c-4.8,0-10.4,0-15.2,0l-0.8-16
	c5.6,0,11.2,0,16.8,0L265.6,48z"/>
<path style="fill:#FFFFFF;" d="M136,247.2L136,247.2c-71.2,0-128,57.6-128,128l0,0c0,71.2,57.6,128,128,128l0,0
	c71.2,0,128-57.6,128-128l0,0C264.8,304.8,207.2,247.2,136,247.2z"/>
<path style="fill:#193651;" d="M136,239.2c-75.2,0-136,60.8-136,136s60.8,136,136,136s136-60.8,136-136
	C272.8,300.8,211.2,239.2,136,239.2z M136,496c-65.6,0-120-53.6-120-120s53.6-120,120-120s120,53.6,120,120S202.4,496,136,496z"/>
<path style="fill:#FDBF5E;" d="M136,472c-52.8,0-96-43.2-96-96s43.2-96,96-96s96,43.2,96,96C232.8,428.8,189.6,472,136,472z"/>
<path style="fill:#FFFFFF;" d="M376,8L376,8c-71.2,0-128,57.6-128,128l0,0c0,71.2,57.6,128,128,128l0,0c71.2,0,128-57.6,128-128l0,0
	C504,65.6,446.4,8,376,8z"/>
<path style="fill:#193651;" d="M376,272.8c-75.2,0-136-60.8-136-136s60.8-136,136-136s136,60.8,136,136
	C512,211.2,451.2,272.8,376,272.8z M376,16c-66.4,0-120,53.6-120,120s53.6,120,120,120s120-53.6,120-120S442.4,16,376,16z"/>
<path style="fill:#4FBF9F;" d="M376,232.8c-52.8,0-96-43.2-96-96s43.2-96,96-96s96,43.2,96,96S428.8,232.8,376,232.8z"/>
<g>
	<polygon style="fill:#193651;" points="170.4,330.4 136,364 102.4,330.4 91.2,341.6 124.8,376 91.2,409.6 102.4,420.8 136,387.2 
		170.4,420.8 181.6,409.6 148,376 181.6,341.6 	"/>
	<polygon style="fill:#193651;" points="422.4,91.2 349.6,163.2 330.4,128.8 316,136.8 346.4,189.6 433.6,102.4 	"/>
</g>
<g>
</g>
<g>
</g>
<g>
</g>
<g>
</g>
<g>
</g>
<g>
</g>
<g>
</g>
<g>
</g>
<g>
</g>
<g>
</g>
<g>
</g>
<g>
</g>
<g>
</g>
<g>
</g>
<g>
</g>
</svg>
