<svg height="512" viewBox="0 0 512 512" width="512" xmlns="http://www.w3.org/2000/svg"><g id="User_Block" data-name="User Block"><g id="Flat"><path d="m334.541 480h-163.2a28.136 28.136 0 0 1 -28.141-28.137 175.079 175.079 0 0 1 64.8-62.863v-21h-42.463a22.791 22.791 0 0 1 -22.17-17.334l-11.087-41.625-19.232-8.741a15.521 15.521 0 0 1 -8.163-8.9 15.293 15.293 0 0 1 .746-12.043l25.419-50.831a126.919 126.919 0 0 1 126.757-124.858h4.917a129.271 129.271 0 0 1 129.276 129.275c0 26.2-8.572 53.172-24.791 78.014a196.131 196.131 0 0 1 -55.209 55.326v24.685c21.554 16.466 39.028 36.558 50.678 58.314v2.581a28.137 28.137 0 0 1 -28.137 28.137z" fill="#ffdecf"/><path d="m367.209 310.957c16.219-24.842 24.791-51.818 24.791-78.014a129.1 129.1 0 0 0 -9.429-48.626 284.081 284.081 0 0 1 -174.571 196.331v8.352a175.079 175.079 0 0 0 -64.8 62.867 28.136 28.136 0 0 0 28.139 28.133h163.2a28.137 28.137 0 0 0 28.137-28.137v-2.581c-11.65-21.756-29.124-41.848-50.678-58.314v-24.685a196.131 196.131 0 0 0 55.211-55.326z" fill="#ffd3c2"/><path d="m436.853 74.814a256 256 0 1 0 -362.039 362.039 256 256 0 0 0 362.039-362.039zm26.98 181.019a206.822 206.822 0 0 1 -37.579 119.107l-289.529-289.528a206.838 206.838 0 0 1 119.108-37.579c114.692 0 208 93.309 208 208zm-416 0a206.834 206.834 0 0 1 37.579-119.107l289.529 289.528a206.835 206.835 0 0 1 -119.108 37.579c-114.691 0-208-93.309-208-208z" fill="#e56161"/><circle cx="292" cy="140" fill="#fff5f2" r="12"/><circle cx="316" cy="180" fill="#fff5f2" r="20"/><path d="m455.974 96.187a356.82 356.82 0 0 1 -9.28 77.009 207.642 207.642 0 0 1 -20.44 201.744l-53.8-53.8a358.183 358.183 0 0 1 -52.129 50.5l54.613 54.612a207.6 207.6 0 0 1 -211.185 16.048 358.082 358.082 0 0 1 -63.753 5.7q-6.822 0-13.584-.255a255.994 255.994 0 0 0 425.417-191.912 254.05 254.05 0 0 0 -55.859-159.646z" fill="#d65858"/></g></g></svg>