<svg xmlns="http://www.w3.org/2000/svg" width="23.098" height="23.098" viewBox="0 0 23.098 23.098">
  <g id="Group_9933" data-name="Group 9933" transform="translate(-1821.482 -436.786)">
    <g id="Group_8757" data-name="Group 8757" transform="translate(1826.432 436.786)">
      <path id="Path_14371" data-name="Path 14371" d="M103.225,0a.825.825,0,0,0-.825.825v1.65h1.65V.825A.825.825,0,0,0,103.225,0Z" transform="translate(-102.4)" fill="#237fd9"/>
    </g>
    <g id="Group_8759" data-name="Group 8759" transform="translate(1837.981 436.786)">
      <path id="Path_14372" data-name="Path 14372" d="M342.158,0a.825.825,0,0,0-.825.825v1.65h1.65V.825A.825.825,0,0,0,342.158,0Z" transform="translate(-341.333)" fill="#237fd9"/>
    </g>
    <g id="Group_8761" data-name="Group 8761" transform="translate(1821.482 439.261)">
      <path id="Path_14373" data-name="Path 14373" d="M20.623,51.2H18.149v3.3a.825.825,0,1,1-1.65,0V51.2H6.6v3.3a.825.825,0,0,1-1.65,0V51.2H2.475A2.475,2.475,0,0,0,0,53.675V69.349a2.475,2.475,0,0,0,2.475,2.475H20.623A2.475,2.475,0,0,0,23.1,69.349V53.675A2.475,2.475,0,0,0,20.623,51.2Zm.825,18.149a.825.825,0,0,1-.825.825H2.475a.825.825,0,0,1-.825-.825V58.624h19.8Z" transform="translate(0 -51.2)" fill="#237fd9"/>
    </g>
    <g id="Group_8763" data-name="Group 8763" transform="translate(1825.607 448.335)">
      <path id="Path_14374" data-name="Path 14374" d="M87.808,238.933h-1.65a.825.825,0,1,0,0,1.65h1.65a.825.825,0,0,0,0-1.65Z" transform="translate(-85.333 -238.933)" fill="#237fd9"/>
    </g>
    <g id="Group_8765" data-name="Group 8765" transform="translate(1831.382 448.335)">
      <path id="Path_14375" data-name="Path 14375" d="M207.275,238.933h-1.65a.825.825,0,0,0,0,1.65h1.65a.825.825,0,0,0,0-1.65Z" transform="translate(-204.8 -238.933)" fill="#237fd9"/>
    </g>
    <g id="Group_8767" data-name="Group 8767" transform="translate(1837.156 448.335)">
      <path id="Path_14376" data-name="Path 14376" d="M326.742,238.933h-1.65a.825.825,0,0,0,0,1.65h1.65a.825.825,0,0,0,0-1.65Z" transform="translate(-324.267 -238.933)" fill="#237fd9"/>
    </g>
    <g id="Group_8769" data-name="Group 8769" transform="translate(1825.607 451.635)">
      <path id="Path_14377" data-name="Path 14377" d="M87.808,307.2h-1.65a.825.825,0,1,0,0,1.65h1.65a.825.825,0,0,0,0-1.65Z" transform="translate(-85.333 -307.2)" fill="#237fd9"/>
    </g>
    <g id="Group_8773" data-name="Group 8773" transform="translate(1837.156 451.635)">
      <path id="Path_14379" data-name="Path 14379" d="M326.742,307.2h-1.65a.825.825,0,0,0,0,1.65h1.65a.825.825,0,0,0,0-1.65Z" transform="translate(-324.267 -307.2)" fill="#237fd9"/>
    </g>
    <g id="Group_8775" data-name="Group 8775" transform="translate(1825.607 454.935)">
      <path id="Path_14380" data-name="Path 14380" d="M87.808,375.467h-1.65a.825.825,0,1,0,0,1.65h1.65a.825.825,0,1,0,0-1.65Z" transform="translate(-85.333 -375.467)" fill="#237fd9"/>
    </g>
    <g id="Group_8777" data-name="Group 8777" transform="translate(1831.382 454.935)">
      <path id="Path_14381" data-name="Path 14381" d="M207.275,375.467h-1.65a.825.825,0,0,0,0,1.65h1.65a.825.825,0,0,0,0-1.65Z" transform="translate(-204.8 -375.467)" fill="#237fd9"/>
    </g>
    <g id="Group_8779" data-name="Group 8779" transform="translate(1837.156 454.935)">
      <path id="Path_14382" data-name="Path 14382" d="M326.742,375.467h-1.65a.825.825,0,0,0,0,1.65h1.65a.825.825,0,0,0,0-1.65Z" transform="translate(-324.267 -375.467)" fill="#237fd9"/>
    </g>
  </g>
</svg>
