<svg xmlns="http://www.w3.org/2000/svg" width="30.072" height="30.119" viewBox="0 0 30.072 30.119">
  <g id="alarm-clock" transform="translate(-0.378 0.001)">
    <g id="Group_9566" data-name="Group 9566" transform="translate(3.557 4.279)">
      <g id="Group_9565" data-name="Group 9565">
        <path id="Path_14484" data-name="Path 14484" d="M71.2,87.913a11.833,11.833,0,1,0-17.087,0l-3.074,4.1A1.076,1.076,0,1,0,52.757,93.3l2.98-3.974a11.746,11.746,0,0,0,13.834,0l2.98,3.974a1.076,1.076,0,1,0,1.721-1.291ZM63.73,79.749a1.076,1.076,0,0,1-.215.645l-3.227,4.3a1.076,1.076,0,1,1-1.721-1.291l3.012-4.016v-6.1a1.076,1.076,0,1,1,2.151,0v6.454Z" transform="translate(-50.821 -67.893)" fill="#237fd9"/>
      </g>
    </g>
    <g id="Group_9568" data-name="Group 9568" transform="translate(0.378 0.046)">
      <g id="Group_9567" data-name="Group 9567" transform="translate(0)">
        <path id="Path_14485" data-name="Path 14485" d="M9.512,2.274A5.379,5.379,0,0,0,1.905,9.879a1.076,1.076,0,0,0,1.521,0L9.512,3.8A1.076,1.076,0,0,0,9.512,2.274Z" transform="translate(-0.378 -0.746)" fill="#237fd9"/>
      </g>
    </g>
    <g id="Group_9570" data-name="Group 9570" transform="translate(20.954 -0.001)">
      <g id="Group_9569" data-name="Group 9569" transform="translate(0 0)">
        <path id="Path_14486" data-name="Path 14486" d="M334.748,1.574a5.379,5.379,0,0,0-7.605,0,1.076,1.076,0,0,0,0,1.521l6.084,6.084a1.076,1.076,0,0,0,1.521,0A5.379,5.379,0,0,0,334.748,1.574Z" transform="translate(-326.828 0.001)" fill="#237fd9"/>
      </g>
    </g>
  </g>
</svg>
