<svg xmlns="http://www.w3.org/2000/svg" width="26" height="25.992" viewBox="0 0 26 25.992">
  <g id="noun_create_3383826" transform="translate(-10 -10.023)">
    <g id="Outline_Expand" data-name="Outline Expand" transform="translate(10 10.023)">
      <path id="Path_14451" data-name="Path 14451" d="M33.947,18.91V35.331a.684.684,0,0,1-.684.684H10.684A.684.684,0,0,1,10,35.331V12.752a.684.684,0,0,1,.684-.684H26.763a.684.684,0,1,1,0,1.368H11.368V34.647H32.579V18.91a.684.684,0,1,1,1.368,0ZM35.8,14.086l-15,15a.681.681,0,0,1-.387.193l-3.387.484a.674.674,0,0,1-.1.007.684.684,0,0,1-.677-.781l.484-3.387a.685.685,0,0,1,.194-.387l15-15a.7.7,0,0,1,.968,0l2.9,2.9a.684.684,0,0,1,0,.968Zm-3.387,1.451L30.477,13.6,18.06,26.02l-.323,2.258L20,27.956ZM34.348,13.6l-1.935-1.935-.968.968L33.38,14.57Z" transform="translate(-10 -10.023)" fill="#fff"/>
    </g>
  </g>
</svg>
