<svg id="dashboard_2_" data-name="dashboard (2)" xmlns="http://www.w3.org/2000/svg" width="25.504" height="25.504" viewBox="0 0 25.504 25.504">
  <path id="Path_14092" data-name="Path 14092" d="M9.829,8.5H1.86A1.862,1.862,0,0,1,0,6.642V1.86A1.862,1.862,0,0,1,1.86,0h7.97a1.862,1.862,0,0,1,1.86,1.86V6.642A1.862,1.862,0,0,1,9.829,8.5ZM1.86,1.594a.266.266,0,0,0-.266.266V6.642a.266.266,0,0,0,.266.266h7.97a.266.266,0,0,0,.266-.266V1.86a.266.266,0,0,0-.266-.266Zm0,0" fill="#fff"/>
  <path id="Path_14093" data-name="Path 14093" d="M9.829,228.209H1.86A1.862,1.862,0,0,1,0,226.35V215.192a1.862,1.862,0,0,1,1.86-1.86h7.97a1.862,1.862,0,0,1,1.86,1.86V226.35A1.862,1.862,0,0,1,9.829,228.209ZM1.86,214.926a.266.266,0,0,0-.266.266V226.35a.266.266,0,0,0,.266.266h7.97a.266.266,0,0,0,.266-.266V215.192a.266.266,0,0,0-.266-.266Zm0,0" transform="translate(0 -202.706)" fill="#fff"/>
  <path id="Path_14094" data-name="Path 14094" d="M287.162,349.833h-7.97a1.862,1.862,0,0,1-1.86-1.86v-4.782a1.862,1.862,0,0,1,1.86-1.86h7.97a1.862,1.862,0,0,1,1.86,1.86v4.782A1.862,1.862,0,0,1,287.162,349.833Zm-7.97-6.907a.266.266,0,0,0-.266.266v4.782a.266.266,0,0,0,.266.266h7.97a.266.266,0,0,0,.266-.266v-4.782a.266.266,0,0,0-.266-.266Zm0,0" transform="translate(-263.518 -324.33)" fill="#fff"/>
  <path id="Path_14095" data-name="Path 14095" d="M287.162,14.877h-7.97a1.862,1.862,0,0,1-1.86-1.86V1.86A1.862,1.862,0,0,1,279.192,0h7.97a1.862,1.862,0,0,1,1.86,1.86V13.017A1.862,1.862,0,0,1,287.162,14.877Zm-7.97-13.283a.266.266,0,0,0-.266.266V13.017a.266.266,0,0,0,.266.266h7.97a.266.266,0,0,0,.266-.266V1.86a.266.266,0,0,0-.266-.266Zm0,0" transform="translate(-263.518)" fill="#fff"/>
</svg>
