<svg xmlns="http://www.w3.org/2000/svg" width="21.222" height="25.504" viewBox="0 0 21.222 25.504">
  <g id="independence" transform="translate(-42.967)">
    <path id="Path_14096" data-name="Path 14096" d="M49.693,0a3.741,3.741,0,0,0-3.737,3.737V20.588h-2.99v1.946a2.973,2.973,0,0,0,2.97,2.97h13.04a2.973,2.973,0,0,0,2.97-2.97V3.737a2.245,2.245,0,0,1,2.242-2.242V0ZM45.937,24.009a1.477,1.477,0,0,1-1.475-1.475v-.451H55.945v.451a2.952,2.952,0,0,0,.393,1.475ZM60.453,3.737v18.8a1.477,1.477,0,0,1-1.475,1.475h-.062a1.477,1.477,0,0,1-1.475-1.475V20.588H47.451V3.737a2.245,2.245,0,0,1,2.242-2.242H61.2A3.717,3.717,0,0,0,60.453,3.737Z" transform="translate(0)" fill="#fff"/>
    <path id="Path_14097" data-name="Path 14097" d="M265.876,288.285a2.459,2.459,0,1,0,2.459,2.459A2.461,2.461,0,0,0,265.876,288.285Zm0,3.423a.964.964,0,1,1,.964-.964A.965.965,0,0,1,265.876,291.708Z" transform="translate(-209.467 -273.922)" fill="#fff"/>
    <path id="Path_14098" data-name="Path 14098" d="M162.583,113.227h10.051v1.495H162.583Z" transform="translate(-113.656 -107.586)" fill="#fff"/>
    <path id="Path_14099" data-name="Path 14099" d="M162.583,173.23h10.051v1.495H162.583Z" transform="translate(-113.656 -164.599)" fill="#fff"/>
    <path id="Path_14100" data-name="Path 14100" d="M162.583,233.234h10.051v1.495H162.583Z" transform="translate(-113.656 -221.614)" fill="#fff"/>
    <path id="Path_14101" data-name="Path 14101" d="M162.583,293.238H166v1.495h-3.416Z" transform="translate(-113.656 -278.628)" fill="#fff"/>
  </g>
</svg>
