<svg xmlns="http://www.w3.org/2000/svg" width="28" height="28" viewBox="0 0 28 28">
  <path id="Path_14487" data-name="Path 14487" d="M19,19a1.974,1.974,0,0,1-1.4-.6,1.933,1.933,0,0,1,0-2.8l11-11a1.933,1.933,0,0,1,2.8,0,1.933,1.933,0,0,1,0,2.8l-11,11A1.974,1.974,0,0,1,19,19Zm10-4.9V27a2.006,2.006,0,0,1-2,2H9a2.006,2.006,0,0,1-2-2V9A2.006,2.006,0,0,1,9,7H21.9l3-3H9A5.081,5.081,0,0,0,4,9V27a5.015,5.015,0,0,0,5,5H27a5.015,5.015,0,0,0,5-5V11.1ZM15,18l-1,3a.945.945,0,0,0,1,1l3-1Z" transform="translate(-4 -4)" fill="#2aa6f0"/>
</svg>
