<svg xmlns="http://www.w3.org/2000/svg" width="24.683" height="25.2" viewBox="0 0 24.683 25.2">
  <g id="Group_9890" data-name="Group 9890" transform="translate(-1848.976 -162)">
    <path id="filter" d="M21.658,0H.974A.972.972,0,0,0,.108.528.985.985,0,0,0,.185,1.553L7.762,12.228l.008.011A2.164,2.164,0,0,1,8.2,13.523v8.7a.968.968,0,0,0,.967.974,1,1,0,0,0,.382-.077L13.8,21.5a.923.923,0,0,0,.635-.91V13.523a2.165,2.165,0,0,1,.425-1.285l.008-.011L22.447,1.553A.984.984,0,0,0,22.524.528.971.971,0,0,0,21.658,0Zm0,0" transform="translate(1850.001 163)" fill="none" stroke="#fff" stroke-width="2"/>
    <line id="Line_102" data-name="Line 102" x2="19" transform="translate(1851.5 167.5)" fill="none" stroke="#fff" stroke-width="2"/>
  </g>
</svg>
