<svg id="menu" xmlns="http://www.w3.org/2000/svg" width="33.703" height="24.341" viewBox="0 0 33.703 24.341">
  <path id="Path_13483" data-name="Path 13483" d="M32.3,125.477H1.4a1.4,1.4,0,1,1,0-2.809H32.3a1.4,1.4,0,1,1,0,2.809Zm0,0" transform="translate(0 -111.902)"/>
  <path id="Path_13484" data-name="Path 13484" d="M32.3,2.809H1.4A1.4,1.4,0,0,1,1.4,0H32.3a1.4,1.4,0,1,1,0,2.809Zm0,0"/>
  <path id="Path_13485" data-name="Path 13485" d="M32.3,248.141H1.4a1.4,1.4,0,0,1,0-2.809H32.3a1.4,1.4,0,0,1,0,2.809Zm0,0" transform="translate(0 -223.8)"/>
</svg>
