<svg xmlns="http://www.w3.org/2000/svg" width="28.907" height="28.91" viewBox="0 0 28.907 28.91">
  <path id="home-run" d="M28.13,12.575l0,0L16.335.78a2.661,2.661,0,0,0-3.764,0L.784,12.566l-.012.012a2.66,2.66,0,0,0,1.771,4.534q.041,0,.082,0H3.1V25.8A3.118,3.118,0,0,0,6.211,28.91h4.614a.847.847,0,0,0,.847-.847v-6.8a1.423,1.423,0,0,1,1.421-1.421h2.721a1.423,1.423,0,0,1,1.421,1.421v6.8a.847.847,0,0,0,.847.847H22.7A3.118,3.118,0,0,0,25.811,25.8V17.117h.436a2.662,2.662,0,0,0,1.883-4.542Zm0,0" transform="translate(0.001)" fill="#237fd9"/>
</svg>
