<svg id="about" xmlns="http://www.w3.org/2000/svg" width="21.435" height="21.435" viewBox="0 0 21.435 21.435">
  <path id="Path_14435" data-name="Path 14435" d="M10.718,21.435a10.718,10.718,0,0,1-7.579-18.3A10.718,10.718,0,0,1,18.3,18.3,10.647,10.647,0,0,1,10.718,21.435Zm0-20.1A9.378,9.378,0,1,0,20.1,10.718,9.389,9.389,0,0,0,10.718,1.34Z" transform="translate(0 0)" fill="#2aa6f0"/>
  <path id="Path_14436" data-name="Path 14436" d="M179.349,107.388a.67.67,0,0,1-.67-.67,6.288,6.288,0,0,1,1.854-4.476,3.936,3.936,0,0,0,1.16-2.8,2.1,2.1,0,0,0-2.1-2.1h-.153a2.1,2.1,0,0,0-2.1,2.1v.244a.67.67,0,0,1-1.34,0V99.44A3.444,3.444,0,0,1,179.44,96h.153a3.444,3.444,0,0,1,3.44,3.44,5.267,5.267,0,0,1-1.553,3.749,4.957,4.957,0,0,0-1.462,3.529A.67.67,0,0,1,179.349,107.388Z" transform="translate(-168.632 -91.981)" fill="#2aa6f0"/>
  <path id="Path_14437" data-name="Path 14437" d="M240.685,401.34a.67.67,0,0,1,0-1.34h0a.67.67,0,0,1,0,1.34Z" transform="translate(-229.967 -383.254)" fill="#2aa6f0"/>
</svg>
