<svg xmlns="http://www.w3.org/2000/svg" width="31.093" height="25.484" viewBox="0 0 31.093 25.484">
  <g id="wheelbarrow" transform="translate(0 -46.184)">
    <g id="Group_8383" data-name="Group 8383" transform="translate(8.225 56.453)">
      <g id="Group_8382" data-name="Group 8382">
        <path id="Path_14102" data-name="Path 14102" d="M138.745,216.16l-2.043-.811a.925.925,0,0,0-.683,1.719l2.043.811a.925.925,0,1,0,.682-1.719Z" transform="translate(-135.436 -215.283)" fill="#fff"/>
      </g>
    </g>
    <g id="Group_8385" data-name="Group 8385" transform="translate(0 46.184)">
      <g id="Group_8384" data-name="Group 8384" transform="translate(0 0)">
        <path id="Path_14103" data-name="Path 14103" d="M30.51,47.613l-2.9-1.152a3.889,3.889,0,0,0-5.05,2.179l-6.429,16.19a3.439,3.439,0,0,0-2.236.543l3.25-8.184a.925.925,0,0,0-.518-1.2L6.708,52.05a.925.925,0,0,0-1.2.518L1.872,61.724l-.605-.24A.925.925,0,0,0,.584,63.2l11.378,4.526a.917.917,0,0,0,.1.033l.3.118a3.428,3.428,0,1,0,5.487-2.367l6.429-16.19a2.04,2.04,0,0,1,2.649-1.143l2.9,1.152a.925.925,0,0,0,.683-1.719ZM11.788,65.661l-8.2-3.255,3.295-8.3,8.2,3.255Zm5.449,3.159a1.578,1.578,0,1,1-.884-2.05A1.568,1.568,0,0,1,17.237,68.82Z" transform="translate(0 -46.184)" fill="#fff"/>
      </g>
    </g>
  </g>
</svg>
