<svg xmlns="http://www.w3.org/2000/svg" width="14.118" height="14.118" viewBox="0 0 14.118 14.118">
  <g id="box" transform="translate(0 0)">
    <path id="Path_14446" data-name="Path 14446" d="M14.115,3.482a.441.441,0,0,0-.252-.352L7.245.042a.441.441,0,0,0-.373,0L.255,3.13A.441.441,0,0,0,0,3.482s0,.045,0,.048v7.5a.441.441,0,0,0,.277.41L6.9,14.087a.441.441,0,0,0,.328,0l6.618-2.647a.441.441,0,0,0,.277-.41V3.53S14.116,3.485,14.115,3.482ZM7.059.928,12.567,3.5l-2.121.848L4.834,1.966Zm-3.3,1.54L9.283,4.812,7.059,5.7,1.551,3.5ZM.882,4.181,6.618,6.476v6.55L.882,10.731ZM7.5,13.025V6.476l5.735-2.294v6.55Z"/>
  </g>
</svg>
