<svg id="list" xmlns="http://www.w3.org/2000/svg" width="24" height="24" viewBox="0 0 24 24">
  <g id="Group_9935" data-name="Group 9935">
    <g id="Group_9934" data-name="Group 9934">
      <path id="Path_14522" data-name="Path 14522" d="M18.75,0H5.25A5.25,5.25,0,0,0,0,5.25v13.5A5.25,5.25,0,0,0,5.25,24h13.5A5.25,5.25,0,0,0,24,18.75V5.25A5.25,5.25,0,0,0,18.75,0ZM22.5,18.75a3.75,3.75,0,0,1-3.75,3.75H5.25A3.75,3.75,0,0,1,1.5,18.75V5.25A3.75,3.75,0,0,1,5.25,1.5h13.5A3.75,3.75,0,0,1,22.5,5.25Z" fill="#fff"/>
      <path id="Path_14523" data-name="Path 14523" d="M114.25,112h-1.5a.75.75,0,0,0-.75.75v1.5a.75.75,0,0,0,.75.75h1.5a.75.75,0,0,0,.75-.75v-1.5A.75.75,0,0,0,114.25,112Z" transform="translate(-106.75 -106.75)" fill="#fff"/>
      <path id="Path_14524" data-name="Path 14524" d="M114.25,224h-1.5a.75.75,0,0,0-.75.75v1.5a.75.75,0,0,0,.75.75h1.5a.75.75,0,0,0,.75-.75v-1.5A.75.75,0,0,0,114.25,224Z" transform="translate(-106.75 -213.5)" fill="#fff"/>
      <path id="Path_14525" data-name="Path 14525" d="M114.25,336h-1.5a.75.75,0,0,0-.75.75v1.5a.75.75,0,0,0,.75.75h1.5a.75.75,0,0,0,.75-.75v-1.5A.75.75,0,0,0,114.25,336Z" transform="translate(-106.75 -320.25)" fill="#fff"/>
      <rect id="Rectangle_3437" data-name="Rectangle 3437" width="9" height="1" transform="translate(10 6)" fill="#fff"/>
      <rect id="Rectangle_3438" data-name="Rectangle 3438" width="9" height="2" transform="translate(10 11)" fill="#fff"/>
      <rect id="Rectangle_3439" data-name="Rectangle 3439" width="9" height="1" transform="translate(10 17)" fill="#fff"/>
    </g>
  </g>
</svg>
