<svg xmlns="http://www.w3.org/2000/svg" width="23.665" height="23.661" viewBox="0 0 23.665 23.661">
  <g id="noun_Shopping_Bag_2323728" data-name="noun_Shopping Bag_2323728" transform="translate(-6.62 -6.62)">
    <path id="Path_14449" data-name="Path 14449" d="M7.177,30.131h22.55a.408.408,0,0,0,.407-.407V7.177a.408.408,0,0,0-.407-.407H7.177a.408.408,0,0,0-.407.407v22.55A.41.41,0,0,0,7.177,30.131ZM7.585,7.585h21.74v21.74H7.585Z" transform="translate(0 0)" fill="#fff" stroke="#fff" stroke-width="0.3"/>
    <path id="Path_14450" data-name="Path 14450" d="M28.93,12.67a1.9,1.9,0,0,0-.653,3.686,5.213,5.213,0,0,1-4.816,3.991,5.213,5.213,0,0,1-4.816-3.991,1.891,1.891,0,1,0-.8.116,6,6,0,0,0,5.612,4.686,6.022,6.022,0,0,0,5.621-4.686,1.9,1.9,0,0,0-.148-3.8Zm-10.539,1.9a.407.407,0,1,0-.815,0,7.15,7.15,0,0,0,.074,1.037,1.081,1.081,0,0,1-.764-1.037,1.093,1.093,0,1,1,1.57.977A7.582,7.582,0,0,1,18.391,14.573ZM29.259,15.61a7.15,7.15,0,0,0,.074-1.037.407.407,0,1,0-.815,0,6.268,6.268,0,0,1-.074.977,1.09,1.09,0,1,1,1.57-.977A1.062,1.062,0,0,1,29.259,15.61Z" transform="translate(-5.004 -3.168)" fill="#fff" stroke="#fff" stroke-width="0.3"/>
  </g>
</svg>
