<svg xmlns="http://www.w3.org/2000/svg" width="25.724" height="23.042" viewBox="0 0 25.724 23.042">
  <g id="Group_8935" data-name="Group 8935" transform="translate(0.25 0.259)">
    <path id="Path_14430" data-name="Path 14430" d="M20.45,36.473a6.294,6.294,0,0,0-7.833-9.827,6.3,6.3,0,0,0-7.842,9.827A8.946,8.946,0,0,0,0,44.423v2.7a.9.9,0,0,0,.9.9H24.324a.9.9,0,0,0,.9-.9v-2.7A8.946,8.946,0,0,0,20.45,36.473Zm-4.234-9.166a4.5,4.5,0,0,1,1.851,8.6c-.069.032-.139.06-.209.09a4.416,4.416,0,0,1-.686.214c-.045.01-.09.015-.136.024a4.506,4.506,0,0,1-.793.08c-.12,0-.241-.009-.36-.02a.681.681,0,0,1-.135-.009,4.551,4.551,0,0,1-1.473-.434c-.017-.008-.037-.007-.054-.014-.09-.043-.18-.081-.26-.13.007-.009.012-.019.019-.028a6.319,6.319,0,0,0,.965-1.758l.028-.076a6.354,6.354,0,0,0,.239-.927c.008-.046.014-.09.022-.14a5.751,5.751,0,0,0,0-1.935c-.007-.047-.014-.09-.022-.14a6.356,6.356,0,0,0-.239-.927l-.028-.076a6.321,6.321,0,0,0-.965-1.758c-.007-.009-.012-.019-.019-.028A4.475,4.475,0,0,1,16.216,27.307ZM4.5,31.811a4.493,4.493,0,0,1,7.6-3.254c.052.05.1.1.154.153a4.632,4.632,0,0,1,.427.518c.04.056.076.115.113.173a4.431,4.431,0,0,1,.331.608c.023.051.04.1.059.155a4.4,4.4,0,0,1,.223.721c.006.027.008.054.014.082a4.241,4.241,0,0,1,0,1.7c-.005.028-.007.055-.014.082a4.393,4.393,0,0,1-.223.721c-.02.051-.037.1-.059.155a4.447,4.447,0,0,1-.331.607c-.037.058-.073.117-.113.173a4.622,4.622,0,0,1-.427.518c-.05.052-.1.1-.154.153a4.5,4.5,0,0,1-1.244.84c-.073.033-.147.064-.222.09a4.53,4.53,0,0,1-.668.207c-.057.013-.115.02-.173.03a4.469,4.469,0,0,1-.741.075h-.1a4.463,4.463,0,0,1-.741-.075c-.058-.01-.116-.017-.173-.03A4.528,4.528,0,0,1,7.377,36l-.222-.09A4.5,4.5,0,0,1,4.5,31.811ZM16.216,46.225H1.8v-1.8a7.162,7.162,0,0,1,4.791-6.789,6.286,6.286,0,0,0,4.832,0,7.239,7.239,0,0,1,.877.388c.187.1.36.206.541.317.117.073.236.144.349.224.174.123.338.258.5.4.1.09.206.18.3.27.149.141.288.289.422.441.1.11.19.222.279.337.118.151.231.306.335.466.09.135.17.276.25.416s.173.31.249.471.142.338.207.51c.057.15.117.3.164.45.063.209.107.425.151.641.027.128.062.253.082.383a7.451,7.451,0,0,1,.082,1.077v1.8Zm7.207,0H18.018v-1.8c0-.282-.016-.561-.041-.838-.007-.081-.02-.161-.029-.242-.024-.2-.052-.4-.09-.592q-.024-.125-.051-.251-.065-.3-.15-.6c-.019-.065-.036-.131-.056-.195a8.926,8.926,0,0,0-1.086-2.276l-.035-.051q-.232-.345-.5-.668l-.006-.008a8.176,8.176,0,0,0-.581-.646h.037a6.376,6.376,0,0,0,.767.054h.05a6.37,6.37,0,0,0,.71-.046c.074-.009.147-.023.221-.034q.287-.044.568-.114c.053-.014.107-.026.161-.041a6.134,6.134,0,0,0,.721-.245,7.162,7.162,0,0,1,4.794,6.791v1.8Z" transform="translate(-0.001 -25.494)" fill="#fff" stroke="#2288c5" stroke-width="0.5"/>
  </g>
</svg>
