<svg xmlns="http://www.w3.org/2000/svg" width="33.35" height="23" viewBox="0 0 33.35 23">
  <g id="reply-email" transform="translate(0 -2.727)">
    <g id="Group_9930" data-name="Group 9930" transform="translate(0 2.727)">
      <path id="Path_14520" data-name="Path 14520" d="M15.583,19.16H2.253V7.726l11.034,7.866a1.145,1.145,0,0,0,1.308,0L25.626,7.726v5.39a1.546,1.546,0,0,1,.228.082,2.407,2.407,0,0,1,1.285,2.133v.761c.249.061.5.127.744.2V5.54a1.036,1.036,0,0,0-.015-.161,1.444,1.444,0,0,0,.015-.18V3.852a1.129,1.129,0,0,0-1.129-1.125H1.127A1.127,1.127,0,0,0,0,3.852v1.4a.957.957,0,0,0,.011.154A.768.768,0,0,0,0,5.54V20.287a1.128,1.128,0,0,0,1.127,1.125h14.8a2.263,2.263,0,0,1-.345-2.253ZM25.135,4.98l-11.2,8.113L2.676,4.98Z" transform="translate(0 -2.727)" fill="#ddae44"/>
      <path id="Path_14521" data-name="Path 14521" d="M17.329,12.149V9.361a.375.375,0,0,0-.2-.328.37.37,0,0,0-.383.019L9.043,14.237a.379.379,0,0,0-.167.309.365.365,0,0,0,.167.307l7.7,5.185a.37.37,0,0,0,.581-.306v-3a27.779,27.779,0,0,1,3.048.161c4.008.476,4.247,2.883,4.293,2.983a.371.371,0,0,0,.344.228.3.3,0,0,0,.07-.008.373.373,0,0,0,.3-.364C25.381,13.662,19,12.366,17.329,12.149Z" transform="translate(7.969 2.895)" fill="#2ac64e"/>
    </g>
  </g>
</svg>
