<svg xmlns="http://www.w3.org/2000/svg" width="37.061" height="42.842" viewBox="0 0 37.061 42.842">
  <g id="notification" transform="translate(3374.265 5229.578)">
    <path id="Path_190" data-name="Path 190" d="M1.422,97.155H35.639a1.422,1.422,0,1,0,0-2.844,4.27,4.27,0,0,1-4.265-4.265l-.115-11.4A14.012,14.012,0,0,1,22.925,66.5c-.2-.075-.425-.112-.633-.178a4.213,4.213,0,0,0,.551-2.056,4.265,4.265,0,1,0-8.531,0,4.212,4.212,0,0,0,.542,2.039A12.77,12.77,0,0,0,5.782,78.483V90.046a4.352,4.352,0,0,1-4.36,4.265,1.422,1.422,0,1,0,0,2.844Zm15.734-32.89a1.422,1.422,0,1,1,1.422,1.422A1.423,1.423,0,0,1,17.156,64.265Z" transform="translate(-3374.265 -5289.578)" fill="#237FD9"/>
    <path id="Path_912" data-name="Path 912" d="M35.639,97.155H1.422a1.422,1.422,0,0,1,0-2.844,4.27,4.27,0,0,0,4.265-4.265l.088-11.737A13.549,13.549,0,0,0,14.136,66.5c.2-.075.425-.112.633-.178a4.213,4.213,0,0,1-.551-2.056,4.265,4.265,0,1,1,8.531,0,4.212,4.212,0,0,1-.542,2.039,12.77,12.77,0,0,1,9.073,12.179V90.046a4.352,4.352,0,0,0,4.36,4.265,1.422,1.422,0,0,1,0,2.844ZM19.9,64.265a1.422,1.422,0,1,0-1.422,1.422A1.423,1.423,0,0,0,19.9,64.265Z" transform="translate(-3374.265 -5289.578)" fill="#237FD9"/>
    <path id="Path_191" data-name="Path 191" d="M161.77,482h-8.007a4.24,4.24,0,0,0,8.007,0Z" transform="translate(-3513.453 -5671.579)" fill="#237FD9"/>
  </g>
</svg>
