<svg xmlns="http://www.w3.org/2000/svg" width="19.143" height="15.949" viewBox="0 0 19.143 15.949">
  <g id="reply" transform="translate(0 -42.653)">
    <path id="Path_14472" data-name="Path 14472" d="M2.191,51.146a.786.786,0,0,1,0-1.035c6.1-6.973,5.77-6.553,5.77-6.67a.787.787,0,0,0-1.374-.522L.2,50.106a.786.786,0,0,0,0,1.045l6.389,7.188a.787.787,0,0,0,1.374-.522c0-.113.34.313-5.77-6.67Z" fill="#009fff"/>
    <path id="Path_14473" data-name="Path 14473" d="M120.372,47.845h-2.409V43.44a.787.787,0,0,0-1.374-.522c-.737.829-6.24,7.123-6.236,7.119a.9.9,0,0,0,0,1.183c6.619,7.565,5.58,6.38,6.236,7.119a.787.787,0,0,0,1.374-.522V53.411h2.408a2.783,2.783,0,0,1,2.752,1.7,5.24,5.24,0,0,1,.455,1.913.786.786,0,0,0,1.572,0V52.625A4.779,4.779,0,0,0,120.372,47.845Z" transform="translate(-106.008 0)" fill="#009fff"/>
  </g>
</svg>
