<svg xmlns="http://www.w3.org/2000/svg" width="20" height="24.935" viewBox="0 0 20 24.935">
  <g id="noun_report_2116357" transform="translate(-18 -6)">
    <g id="Group_8782" data-name="Group 8782" transform="translate(18 6)">
      <path id="Path_14383" data-name="Path 14383" d="M19.875,6A1.8,1.8,0,0,0,18,7.7V29.234a1.8,1.8,0,0,0,1.875,1.7h16.25A1.8,1.8,0,0,0,38,29.234v-17a.541.541,0,0,0-.186-.407l-6.25-5.667A.661.661,0,0,0,31.125,6Zm0,1.133H30.5V11.1a1.8,1.8,0,0,0,1.875,1.7H36.75V29.234a.584.584,0,0,1-.625.567H19.875a.584.584,0,0,1-.625-.567V7.7A.584.584,0,0,1,19.875,7.133Zm11.875.8,4.121,3.737h-3.5a.584.584,0,0,1-.625-.567ZM28,13.367a5.391,5.391,0,0,0-5.625,5.1A5.391,5.391,0,0,0,28,23.567a5.391,5.391,0,0,0,5.625-5.1A5.391,5.391,0,0,0,28,13.367ZM28,14.5a4.244,4.244,0,0,1,4.326,3.4H27.941a.629.629,0,0,0-.5.306.521.521,0,0,0,.017.544l2.168,3.4A4.794,4.794,0,0,1,28,22.434a4.177,4.177,0,0,1-4.375-3.967A4.177,4.177,0,0,1,28,14.5Zm1.084,4.534h3.242a3.886,3.886,0,0,1-1.621,2.55ZM22.316,24.7a.592.592,0,0,0-.6.593.605.605,0,0,0,.654.54h11.25a.569.569,0,1,0,0-1.133H22.316Zm1.25,1.983a.592.592,0,0,0-.6.593.605.605,0,0,0,.654.54h8.75a.569.569,0,1,0,0-1.133H23.566Z" transform="translate(-18 -6)" fill="#fff"/>
    </g>
  </g>
</svg>
