<svg xmlns="http://www.w3.org/2000/svg" width="20" height="24.68" viewBox="0 0 20 24.68">
  <path id="Path_14382" data-name="Path 14382" d="M6.359,1.828H7.414A2.425,2.425,0,0,1,8.108.722a2.838,2.838,0,0,1,3.783,0h0a2.423,2.423,0,0,1,.694,1.107H19.31a.664.664,0,0,1,.69.635V24.045a.664.664,0,0,1-.69.635H.69A.664.664,0,0,1,0,24.045V2.463a.664.664,0,0,1,.69-.635H6.359Zm-1.7,19.2a.637.637,0,1,1,0-1.27h10.69a.637.637,0,1,1,0,1.27H4.655Zm0-3.383a.637.637,0,1,1,0-1.27h10.69a.637.637,0,1,1,0,1.27H4.655Zm1.282-6.823a.6.6,0,0,1-.084-.89.728.728,0,0,1,.967-.077l2.56,1.985L13.1,7.8a.73.73,0,0,1,.97-.074.6.6,0,0,1,.081.893L9.99,13.141h0a.728.728,0,0,1-.966.075L5.937,10.824ZM14.331,3.1V4.9a.664.664,0,0,1-.69.635H6.359a.664.664,0,0,1-.69-.635V3.1H1.379V23.41H18.621V3.1h-4.29Zm-6.317,0H7.048V4.265h5.9V3.1h-.965a.664.664,0,0,1-.69-.635,1.144,1.144,0,0,0-.38-.844v0a1.381,1.381,0,0,0-1.834,0,1.144,1.144,0,0,0-.38.844.664.664,0,0,1-.69.635Z" transform="translate(0 0)" fill="#fff"/>
</svg>
