<svg xmlns="http://www.w3.org/2000/svg" width="21.622" height="27.276" viewBox="0 0 21.622 27.276">
  <path id="Path_14397" data-name="Path 14397" d="M19.071,17.363V26.51C15.466,26.6,12,27.515,12,29.188c0,1.764,3.854,2.688,7.66,2.688s7.66-.923,7.66-2.688c0-1.673-3.466-2.588-7.071-2.679V17.9H32.623a.6.6,0,0,0,.524-.291.5.5,0,0,0-.044-.559L30.4,13.6l2.7-3.45a.5.5,0,0,0,.044-.559.6.6,0,0,0-.524-.291H20.249V8.126a1.628,1.628,0,0,0,1.178-1.514,1.775,1.775,0,0,0-3.535,0,1.628,1.628,0,0,0,1.178,1.513v9.237Zm12.407-6.988L29.2,13.288a.5.5,0,0,0,0,.625l2.281,2.913H20.249v-6.45ZM19.66,6.075a.54.54,0,1,1-.589.538A.566.566,0,0,1,19.66,6.075Zm0,23.113a.565.565,0,0,0,.589-.538V27.585c3.816.094,5.892,1.082,5.892,1.6,0,.547-2.288,1.613-6.481,1.613s-6.481-1.065-6.481-1.613c0-.521,2.077-1.509,5.892-1.6v1.066A.565.565,0,0,0,19.66,29.188Z" transform="translate(-11.8 -4.8)" fill="#fff" stroke="#fff" stroke-width="0.4"/>
</svg>
