<svg xmlns="http://www.w3.org/2000/svg" width="27.587" height="21.573" viewBox="0 0 27.587 21.573">
  <g id="sales" transform="translate(0 -55.784)">
    <g id="Group_8386" data-name="Group 8386" transform="translate(0 60.943)">
      <path id="Path_14104" data-name="Path 14104" d="M26.777,166.289h-1.63V155.505a.809.809,0,0,0-.81-.809H19.864a.809.809,0,0,0-.81.809v10.784H16.84V152.3a.809.809,0,0,0-.81-.809H11.557a.809.809,0,0,0-.81.809v13.987H8.532V154.65a.809.809,0,0,0-.81-.809H3.25a.809.809,0,0,0-.81.809v11.639H.81a.809.809,0,1,0,0,1.617H26.777a.809.809,0,1,0,0-1.617Zm-22.717,0V155.458H6.913v10.831Zm8.307,0V153.11H15.22v13.179Zm8.307,0v-9.975h2.852v9.975Z" transform="translate(0 -151.493)" fill="#fff"/>
    </g>
    <path id="Path_14105" data-name="Path 14105" d="M34.567,58.861A.81.81,0,0,0,33.946,58l-2.613-.635a.809.809,0,1,0-.382,1.571l.739.18L29.6,60.411,21.653,55.89a.808.808,0,0,0-.744-.029l-7.895,3.706L9.24,57.211a.809.809,0,1,0-.856,1.372l4.147,2.588a.809.809,0,0,0,.772.046L21.217,57.5l8,4.552a.835.835,0,0,0,.825-.015l2.539-1.567-.169.792a.809.809,0,0,0,1.582.338l.561-2.625a.934.934,0,0,0,.018-.117Z" transform="translate(-7.572)" fill="#fff"/>
  </g>
</svg>
