<svg id="sort_2_" data-name="sort (2)" xmlns="http://www.w3.org/2000/svg" width="23.866" height="31.329" viewBox="0 0 23.866 31.329">
  <g id="Group_9768" data-name="Group 9768" transform="translate(0 0)">
    <g id="Group_9767" data-name="Group 9767" transform="translate(0 0)">
      <path id="Path_14508" data-name="Path 14508" d="M73.651,7.69,68.143.347a.95.95,0,0,0-1.468,0L61.168,7.69A.918.918,0,0,0,61.9,9.158h2.754V26.6a.917.917,0,0,0,.918.918h3.671a.907.907,0,0,0,.906-.918V9.158h2.766A.918.918,0,0,0,73.651,7.69Z" transform="translate(-60.983 0)" fill="#fff"/>
    </g>
  </g>
  <g id="Group_9770" data-name="Group 9770" transform="translate(11.014 3.794)">
    <g id="Group_9769" data-name="Group 9769">
      <path id="Path_14509" data-name="Path 14509" d="M252.917,80.358h-2.766V62.919a.907.907,0,0,0-.906-.918h-3.671a.917.917,0,0,0-.918.918V80.358H241.9a.918.918,0,0,0-.734,1.468l5.507,7.343a.917.917,0,0,0,1.468,0l5.507-7.343A.918.918,0,0,0,252.917,80.358Z" transform="translate(-240.984 -62.001)" fill="#fff"/>
    </g>
  </g>
</svg>
