<svg id="check_1_" data-name="check (1)" xmlns="http://www.w3.org/2000/svg" width="92.5" height="92.5" viewBox="0 0 92.5 92.5">
  <path id="Path_14475" data-name="Path 14475" d="M119.913,103.492h0a3.33,3.33,0,0,1-2.557-1.162L99.81,83.272a3.455,3.455,0,0,1,5.113-4.648l15.107,16.385,41.834-41.718a3.37,3.37,0,0,1,4.881,0,3.471,3.471,0,0,1,0,4.881l-44.391,44.275A3.165,3.165,0,0,1,119.913,103.492Z" transform="translate(-76.917 -40.625)" fill="#2aa6f0"/>
  <path id="Path_14476" data-name="Path 14476" d="M46.25,92.5a46.25,46.25,0,1,1,0-92.5,3.424,3.424,0,0,1,3.486,3.486A3.424,3.424,0,0,1,46.25,6.972,39.278,39.278,0,1,0,85.528,46.25a3.486,3.486,0,1,1,6.972,0A46.371,46.371,0,0,1,46.25,92.5Z" fill="#1ecb7b"/>
</svg>
