<svg xmlns="http://www.w3.org/2000/svg" width="20" height="24.892" viewBox="0 0 20 24.892">
  <g id="Group_8783" data-name="Group 8783" transform="translate(-15 -955.362)">
    <path id="Path_14384" data-name="Path 14384" d="M17,955.362a1.945,1.945,0,0,0-2,1.854V978.4a1.945,1.945,0,0,0,2,1.854H33a1.945,1.945,0,0,0,2-1.854V957.216a1.945,1.945,0,0,0-2-1.854Zm0,1.589H33a.259.259,0,0,1,.286.265V978.4a.259.259,0,0,1-.286.265H17a.259.259,0,0,1-.286-.265V957.216A.259.259,0,0,1,17,956.951Zm2.571,3.178A1.328,1.328,0,1,0,21,961.453,1.379,1.379,0,0,0,19.571,960.129Zm3.714.53a.8.8,0,1,0,0,1.589H31a.8.8,0,1,0,0-1.589Zm-3.714,3.707A1.328,1.328,0,1,0,21,965.69,1.379,1.379,0,0,0,19.571,964.365Zm3.714.53a.8.8,0,1,0,0,1.589H31a.8.8,0,1,0,0-1.589ZM19.571,968.6A1.328,1.328,0,1,0,21,969.927,1.379,1.379,0,0,0,19.571,968.6Zm3.714.53a.8.8,0,1,0,0,1.589H31a.8.8,0,1,0,0-1.589Zm-3.714,3.707A1.328,1.328,0,1,0,21,974.163,1.379,1.379,0,0,0,19.571,972.839Zm3.714.53a.8.8,0,1,0,0,1.589H31a.8.8,0,1,0,0-1.589Z" fill="#fff"/>
  </g>
</svg>
