<svg xmlns="http://www.w3.org/2000/svg" width="29.759" height="33.291" viewBox="0 0 29.759 33.291">
  <g id="updated" transform="translate(0 0)">
    <path id="Path_14502" data-name="Path 14502" d="M2.1,44.6A12.621,12.621,0,0,0,7.477,54.942a1.042,1.042,0,0,1,.053,1.673l-.015.012a1.038,1.038,0,0,1-1.238.039A14.72,14.72,0,0,1,0,44.6,14.885,14.885,0,0,1,14.779,29.863v2.1A12.783,12.783,0,0,0,2.1,44.6Zm0,0" transform="translate(0 -27.921)" fill="#1ed688"/>
    <path id="Path_14503" data-name="Path 14503" d="M225.217.063,229.078,2.7a.356.356,0,0,1,0,.588l-3.861,2.641a.356.356,0,0,1-.557-.294V.357a.356.356,0,0,1,.557-.294Zm0,0" transform="translate(-210.053)" fill="#1ab975"/>
    <path id="Path_14504" data-name="Path 14504" d="M243.23,79.306a12.621,12.621,0,0,0-5.377-10.344,1.042,1.042,0,0,1-.053-1.673l.015-.012a1.038,1.038,0,0,1,1.238-.039,14.719,14.719,0,0,1,6.277,12.068,14.875,14.875,0,0,1-14.768,14.735v-2.1A12.773,12.773,0,0,0,243.23,79.306Zm0,0" transform="translate(-215.571 -62.692)" fill="#1ed688"/>
    <path id="Path_14505" data-name="Path 14505" d="M166.717,425.731l-3.861-2.641a.356.356,0,0,1,0-.588l3.861-2.641a.356.356,0,0,1,.557.294v5.281A.356.356,0,0,1,166.717,425.731Zm0,0" transform="translate(-152.122 -392.503)" fill="#1ab975"/>
    <path id="Path_14506" data-name="Path 14506" d="M132.438,188.147l-6.324,5.244-1.594,1.322a2.086,2.086,0,0,1-3-.354l-2.459-3.278a1.677,1.677,0,0,1,2.683-2.012l1.66,2.214.013-.011,6.881-5.707a1.677,1.677,0,1,1,2.14,2.582Zm0,0" transform="translate(-111.005 -173.138)" fill="#1ed688"/>
    <path id="Path_14507" data-name="Path 14507" d="M199.9,188.147l-6.324,5.244a8.5,8.5,0,0,1-2.7-2.12l6.881-5.707a1.677,1.677,0,1,1,2.14,2.582Zm0,0" transform="translate(-178.471 -173.138)" fill="#35e298"/>
  </g>
</svg>
