<svg height="512" viewBox="0 0 512 512" width="512" xmlns="http://www.w3.org/2000/svg"><g id="Solid"><path style="fill:#4ebdff;" d="m200.236 93.3a163.013 163.013 0 0 1 183.4 20.359h-19.484a24 24 0 0 0 0 48h73.411a24 24 0 0 0 24-24v-73.41a24 24 0 0 0 -48 0v11.819a211.072 211.072 0 0 0 -236.026-25.061 24 24 0 1 0 22.7 42.293z"/><path style="fill:#4ebdff;"  d="m198.9 379.83a163.01 163.01 0 0 1 -84.04-157.115 165.511 165.511 0 0 1 2.388-17.027l10.252 17.748a24 24 0 1 0 41.568-24l-36.707-63.576a24 24 0 0 0 -32.784-8.785l-63.577 36.706a24 24 0 0 0 24 41.569l9.522-5.5q-1.635 9.235-2.477 18.679a211.021 211.021 0 0 0 108.791 203.394 24 24 0 1 0 23.064-42.093z"/><path style="fill:#4ebdff;" d="m464 211.806h-.116a24 24 0 0 0 -23.884 24.114c.024 5.035-.188 10.143-.63 15.186a162.927 162.927 0 0 1 -108.2 139.468l9.75-16.887a24 24 0 0 0 -41.569-24l-36.651 63.477-.066.115a24 24 0 0 0 8.794 32.769l63.576 36.7a24 24 0 0 0 24-41.569l-10.264-5.926a210.9 210.9 0 0 0 138.447-179.96c.571-6.5.843-13.1.813-19.6a24 24 0 0 0 -24-23.887z"/></g></svg>