<svg xmlns="http://www.w3.org/2000/svg" width="26.401" height="26.399" viewBox="0 0 26.401 26.399">
  <g id="Group_8785" data-name="Group 8785" transform="translate(0.2 0.2)">
    <path id="Path_14385" data-name="Path 14385" d="M10.431,23.493a3.065,3.065,0,0,1-.932,3.4l-.341.282.255.361a12.935,12.935,0,0,0,2.163,2.372l.337.287.312-.314a3.055,3.055,0,0,1,5.213,2.444l-.042.44.436.075a12.931,12.931,0,0,0,2.185.186q.511,0,1.022-.041l.441-.035,0-.442a3.055,3.055,0,0,1,5.413-1.958l.282.341.361-.255a12.933,12.933,0,0,0,2.372-2.163l.287-.336-.314-.312a3.065,3.065,0,0,1-.619-3.469h0a3.071,3.071,0,0,1,3.062-1.744l.441.042.075-.436a12.953,12.953,0,0,0,.145-3.207l-.035-.441-.442,0h-.013a3.054,3.054,0,0,1-1.945-5.413l.341-.282-.255-.361a12.951,12.951,0,0,0-2.163-2.372l-.336-.287-.312.314A3.054,3.054,0,0,1,22.61,7.726l.042-.44-.436-.075a12.954,12.954,0,0,0-3.207-.145l-.441.035,0,.442A3.055,3.055,0,0,1,13.157,9.5l-.282-.341-.361.255a12.933,12.933,0,0,0-2.372,2.163l-.287.336.314.312a3.055,3.055,0,0,1-2.444,5.213L7.284,17.4l-.075.436a12.936,12.936,0,0,0-.145,3.207l.035.441.442,0h.012A3.066,3.066,0,0,1,10.431,23.493ZM8.086,18.4a4.007,4.007,0,0,0,3.057-6.52,11.956,11.956,0,0,1,1.586-1.446A4.007,4.007,0,0,0,19.5,7.99a11.943,11.943,0,0,1,2.143.1,4.007,4.007,0,0,0,6.52,3.056,11.992,11.992,0,0,1,1.446,1.586A4.007,4.007,0,0,0,32.058,19.5a11.975,11.975,0,0,1-.1,2.144,4.007,4.007,0,0,0-3.057,6.52,11.975,11.975,0,0,1-1.586,1.446,4.007,4.007,0,0,0-6.771,2.449,11.945,11.945,0,0,1-2.143-.1,4.007,4.007,0,0,0-6.52-3.056,11.977,11.977,0,0,1-1.446-1.586,4.007,4.007,0,0,0-2.449-6.771A11.975,11.975,0,0,1,8.086,18.4Z" transform="translate(-7.024 -7.025)" fill="#fff" stroke="#fff" stroke-width="0.4"/>
    <path id="Path_14386" data-name="Path 14386" d="M41.563,35.967A3.659,3.659,0,1,0,37.9,32.308,3.663,3.663,0,0,0,41.563,35.967Zm0-6.364a2.705,2.705,0,1,1-2.705,2.705A2.708,2.708,0,0,1,41.563,29.6Z" transform="translate(-28.563 -22.108)" fill="#fff" stroke="#fff" stroke-width="0.4"/>
    <path id="Path_14387" data-name="Path 14387" d="M32.67,60.181a3.21,3.21,0,0,1,3.206-3.206h2.741a3.21,3.21,0,0,1,3.206,3.206h.953a4.165,4.165,0,0,0-4.16-4.16H35.877a4.165,4.165,0,0,0-4.16,4.16h.953Z" transform="translate(-24.247 -41.2)" fill="#fff" stroke="#fff" stroke-width="0.4"/>
  </g>
</svg>
