<svg xmlns="http://www.w3.org/2000/svg" width="26.681" height="18.192" viewBox="0 0 26.681 18.192">
  <g id="visibility_1_" data-name="visibility (1)" transform="translate(0 -18.2)">
    <g id="Group_9031" data-name="Group 9031" transform="translate(0 18.2)">
      <g id="Group_9030" data-name="Group 9030">
        <path id="Path_14458" data-name="Path 14458" d="M45.238,41.6a3.638,3.638,0,1,0,3.638,3.638A3.641,3.641,0,0,0,45.238,41.6Z" transform="translate(-31.898 -36.143)" fill="#2aa6f0"/>
        <path id="Path_14459" data-name="Path 14459" d="M13.34,18.2A14.343,14.343,0,0,0,0,27.3a14.331,14.331,0,0,0,26.681,0A14.337,14.337,0,0,0,13.34,18.2Zm0,15.16A6.064,6.064,0,1,1,19.4,27.3,6.066,6.066,0,0,1,13.34,33.36Z" transform="translate(0 -18.2)" fill="#2aa6f0"/>
      </g>
    </g>
  </g>
</svg>
