<svg xmlns="http://www.w3.org/2000/svg" width="46" height="21" viewBox="0 0 46 21">
  <g id="Group_9934" data-name="Group 9934" transform="translate(1293 6404)">
    <g id="Group_9933" data-name="Group 9933" transform="translate(-1290.004 -6525)">
      <g id="Group_9662" data-name="Group 9662" transform="translate(0 121)">
        <g id="Group_9661" data-name="Group 9661">
          <path id="Path_14499" data-name="Path 14499" d="M39.524,130.722c-.355-.4-8.9-9.722-19.614-9.722S.652,130.325.3,130.722a1.167,1.167,0,0,0,0,1.556c.352.4,8.9,9.722,19.611,9.722s19.258-9.325,19.614-9.722a1.167,1.167,0,0,0,0-1.556ZM19.91,139.667a8.167,8.167,0,1,1,8.167-8.167,8.167,8.167,0,0,1-8.167,8.167Z" transform="translate(0.001 -121)" fill="#7153ef"/>
        </g>
      </g>
      <g id="Group_9664" data-name="Group 9664" transform="translate(14.077 125.667)">
        <g id="Group_9663" data-name="Group 9663">
          <path id="Path_14500" data-name="Path 14500" d="M188,184.5a3.489,3.489,0,0,1,1.469-2.841,5.758,5.758,0,0,0-2.636-.659,5.833,5.833,0,1,0,5.734,6.817A3.48,3.48,0,0,1,188,184.5Z" transform="translate(-181 -181)" fill="#7153ef"/>
        </g>
      </g>
    </g>
    <rect id="Rectangle_3437" data-name="Rectangle 3437" width="46" height="21" transform="translate(-1293 -6404)" fill="rgba(255,255,255,0)"/>
  </g>
</svg>
