<svg id="Group_8779" data-name="Group 8779" xmlns="http://www.w3.org/2000/svg" width="26" height="21.982" viewBox="0 0 26 21.982">
  <g id="Group_8758" data-name="Group 8758" transform="translate(0 0)">
    <g id="Group_8757" data-name="Group 8757">
      <path id="Path_14371" data-name="Path 14371" d="M82.58,134.894c-.6-.383-1.188-.774-1.79-1.145q-1.083-.664-2.164-1.33l-3.5-2.152q-1.674-1.028-3.351-2.058c-.568-.348-1.13-.714-1.707-1.051l-.026-.017a.571.571,0,0,0-.577,0c-.462.291-.928.58-1.39.871l-3.166,1.978-3.511,2.2-2.355,1.473c-.594.371-1.173.759-1.758,1.139-.046.031-.094.063-.14.091a.572.572,0,0,0,.577.988c.585-.383,1.168-.774,1.761-1.145L61.6,133.4l3.451-2.158,3.28-2.053c.56-.351,1.139-.679,1.684-1.053a.117.117,0,0,1,.026-.014h-.577c.471.291.945.579,1.416.871q1.61.989,3.22,1.981,1.781,1.1,3.563,2.19l2.409,1.482c.6.368,1.188.754,1.781,1.136.049.031.1.063.148.094a.576.576,0,0,0,.782-.206.584.584,0,0,0-.206-.779Z" transform="translate(-56.859 -127.062)" fill="#fff"/>
    </g>
  </g>
  <g id="Group_8760" data-name="Group 8760" transform="translate(1.6 0.006)">
    <g id="Group_8759" data-name="Group 8759">
      <path id="Path_14372" data-name="Path 14372" d="M134.577,134.543v12.375c0,.571-.026,1.148,0,1.721v.026l.571-.571H114.377c-.28,0-.562-.009-.842,0H113.5l.571.571V136.29c0-.571.026-1.15,0-1.721v-.026l-.283.494,1.071-.668q1.276-.8,2.555-1.6,1.55-.972,3.1-1.941,1.336-.835,2.675-1.673c.434-.271.885-.525,1.3-.816l.017-.011h-.577l1.085.668,2.606,1.6q1.584.972,3.166,1.947,1.357.835,2.718,1.67c.442.271.879.56,1.33.816l.017.011a.572.572,0,1,0,.577-.988l-1.085-.668-2.606-1.6q-1.584-.972-3.166-1.947-1.357-.835-2.718-1.67c-.442-.271-.879-.56-1.33-.816l-.017-.011a.571.571,0,0,0-.577,0c-.4.248-.8.5-1.193.748q-1.4.878-2.8,1.753-1.644,1.028-3.286,2.055-1.3.814-2.6,1.63l-.7.437c-.043.029-.088.054-.134.083a.625.625,0,0,0-.291.528c-.011.537,0,1.073,0,1.607v12.483a.58.58,0,0,0,.571.571h20.771c.28,0,.562.006.842,0h.037a.58.58,0,0,0,.571-.571V136.29c0-.574.014-1.148,0-1.721v-.026a.571.571,0,1,0-1.142,0Z" transform="translate(-112.922 -127.262)" fill="#fff"/>
    </g>
  </g>
  <g id="Group_8762" data-name="Group 8762" transform="translate(7.106 13.064)">
    <g id="Group_8761" data-name="Group 8761" transform="translate(0)">
      <path id="Path_14373" data-name="Path 14373" d="M307.821,585.253v3.4c.285-.166.574-.328.859-.494-.18-.1-.363-.2-.542-.3a1.012,1.012,0,0,0-1.513,0c-.18.1-.363.2-.542.3.285.166.574.328.859.494v-3.4l-.571.571h2.024a.571.571,0,0,0,0-1.142h-2.024a.58.58,0,0,0-.571.571v3.4a.577.577,0,0,0,.859.494l1.011-.562h-.577l1.011.562a.577.577,0,0,0,.859-.494v-3.4a.576.576,0,0,0-.571-.571A.582.582,0,0,0,307.821,585.253Z" transform="translate(-305.8 -584.682)" fill="#fff"/>
    </g>
  </g>
  <g id="Group_8764" data-name="Group 8764" transform="translate(3.893 13.058)">
    <g id="Group_8763" data-name="Group 8763">
      <path id="Path_14374" data-name="Path 14374" d="M201.671,586.011v5.878c0,.011-.009.054,0,.063-.023-.037.023-.109,0-.031-.009.037-.017.128-.046.151,0,0,.069-.126.009-.031a.468.468,0,0,0-.029.051c-.069.109.054-.046-.014.023-.017.017-.108.126-.054.06.04-.049.02-.011,0,0s-.054.034-.083.049c-.114.06.069-.011-.026.009-.046.011-.126.029-.031.017-.034,0-.071.006-.106.006-.614.011-1.23,0-1.844,0h-4.673l-.06,0c-.077,0,.111.026.037.006-.049-.011-.1-.029-.146-.04s.054.014.051.023l-.066-.034a.635.635,0,0,1-.091-.06c.009-.023.091.086.031.02a.438.438,0,0,0-.051-.051c-.049-.046,0,0,0,0,.026.034.029.04.011.014s-.02-.031-.031-.046-.054-.1-.054-.1c.02-.011.037.12.017.031l-.017-.054-.017-.074c-.017-.063.011.057.009.057s0-.086,0-.08v-5.852c0-.02.014-.131,0-.046s.014-.051.02-.074l.023-.071c.006,0-.06.114-.011.034.023-.034.049-.074.069-.111.026-.057-.026.049-.034.043l.049-.054a.464.464,0,0,0,.04-.037c.043-.057-.091.054-.029.02.04-.023.089-.049.126-.074s-.049.029-.051.02a.5.5,0,0,1,.071-.023c.023-.006.168-.037.074-.02s.02,0,.051,0c.14,0,.283,0,.423,0h1.813l-.571-.571v3.4a.577.577,0,0,0,.859.494l1.011-.562h-.577l1.011.562a.577.577,0,0,0,.859-.494v-3.4l-.571.571c.748,0,1.5-.014,2.249,0a.745.745,0,0,1,.077,0s-.146-.029-.02,0a.387.387,0,0,1,.054.014c.04.011.089.051.037.009s-.023-.011,0,0,.054.031.08.046c.069.04.011.023.017.009-.034-.026-.037-.029-.014-.009a.523.523,0,0,1,.04.037.249.249,0,0,0,.037.04c.049.031-.06-.1-.011-.014a1,1,0,0,1,.071.128c-.02.011-.037-.12-.017-.031l.026.091a.4.4,0,0,0,.011.057c-.009-.083-.014-.1-.009-.054a.364.364,0,0,1,0,.057.571.571,0,0,0,1.142,0,1.546,1.546,0,0,0-.8-1.342,1.854,1.854,0,0,0-.874-.186h-2.1a.58.58,0,0,0-.571.571v3.4c.285-.166.574-.328.859-.494-.18-.1-.363-.2-.542-.3a1.012,1.012,0,0,0-1.513,0c-.18.1-.363.2-.542.3.285.166.574.328.859.494v-3.4a.58.58,0,0,0-.571-.571c-.748,0-1.5-.014-2.249,0a1.554,1.554,0,0,0-1.527,1.556v3.908c0,.645-.017,1.293,0,1.941A1.55,1.55,0,0,0,194.8,593.4h6.489a1.555,1.555,0,0,0,1.27-.682,1.883,1.883,0,0,0,.257-1.142v-5.561a.576.576,0,0,0-.571-.571A.583.583,0,0,0,201.671,586.011Z" transform="translate(-193.233 -584.478)" fill="#fff"/>
    </g>
  </g>
  <g id="Group_8766" data-name="Group 8766" transform="translate(7.106 13.064)">
    <g id="Group_8765" data-name="Group 8765" transform="translate(0)">
      <path id="Path_14375" data-name="Path 14375" d="M307.821,585.253v3.4c.285-.166.574-.328.859-.494-.18-.1-.363-.2-.542-.3a1.012,1.012,0,0,0-1.513,0c-.18.1-.363.2-.542.3.285.166.574.328.859.494v-3.4l-.571.571h2.024a.571.571,0,0,0,0-1.142h-2.024a.58.58,0,0,0-.571.571v3.4a.577.577,0,0,0,.859.494l1.011-.562h-.577l1.011.562a.577.577,0,0,0,.859-.494v-3.4a.576.576,0,0,0-.571-.571A.582.582,0,0,0,307.821,585.253Z" transform="translate(-305.8 -584.682)" fill="#fff"/>
    </g>
  </g>
  <g id="Group_8768" data-name="Group 8768" transform="translate(15.536 13.064)">
    <g id="Group_8767" data-name="Group 8767">
      <path id="Path_14376" data-name="Path 14376" d="M603.121,585.253v3.4c.285-.166.574-.328.859-.494-.18-.1-.363-.2-.542-.3a1.012,1.012,0,0,0-1.513,0c-.18.1-.362.2-.542.3.285.166.574.328.859.494v-3.4l-.571.571h2.024a.571.571,0,1,0,0-1.142h-2.024a.58.58,0,0,0-.571.571v3.4a.577.577,0,0,0,.859.494l1.011-.562h-.577l1.011.562a.577.577,0,0,0,.859-.494v-3.4a.571.571,0,0,0-1.142,0Z" transform="translate(-601.1 -584.682)" fill="#fff"/>
    </g>
  </g>
  <g id="Group_8770" data-name="Group 8770" transform="translate(12.323 13.058)">
    <g id="Group_8769" data-name="Group 8769">
      <path id="Path_14377" data-name="Path 14377" d="M496.971,586.011v5.878c0,.011-.009.054,0,.063-.023-.037.023-.109,0-.031-.011.037-.017.126-.046.151,0,0,.066-.123.009-.031a.46.46,0,0,0-.029.051c-.069.109.054-.046-.017.023-.017.017-.111.123-.054.06s.017-.011,0,0-.054.034-.083.049c-.114.06.069-.011-.026.009-.046.011-.126.029-.031.017-.034,0-.071.006-.106.006-.614.011-1.23,0-1.844,0h-4.673l-.06,0c-.077,0,.108.029.037.006-.046-.014-.1-.029-.146-.04-.063-.011.054.014.051.023l-.066-.034a1.007,1.007,0,0,1-.091-.06c.011-.023.091.086.031.02a.439.439,0,0,0-.051-.051c-.049-.046,0,0,0,0,.026.034.029.04.011.014s-.02-.031-.031-.046-.054-.1-.051-.1c.02-.011.037.12.017.031l-.017-.054a.57.57,0,0,0-.017-.074c-.02-.063.014.057.009.057a.8.8,0,0,1,0-.08v-5.852c0-.023.014-.131,0-.046s.014-.051.02-.074l.023-.071c.006,0-.06.114-.011.034.02-.034.049-.074.066-.111.026-.057-.026.051-.034.043l.049-.054a.457.457,0,0,0,.04-.037c.043-.057-.091.054-.029.02.04-.023.088-.049.126-.074s-.049.029-.051.02a.5.5,0,0,1,.071-.023c.023-.006.168-.037.074-.02s.02,0,.051,0c.14,0,.283,0,.422,0h1.813l-.571-.571v3.4a.577.577,0,0,0,.859.494l1.011-.562h-.577l1.011.562a.577.577,0,0,0,.859-.494v-3.4l-.571.571c.748,0,1.5-.014,2.25,0a.745.745,0,0,1,.077,0s-.146-.029-.02,0a.387.387,0,0,1,.054.014c.02.006.111.051.037.009s-.014-.006,0,0,.054.031.08.046c.066.04.011.029.017.009-.034-.026-.037-.029-.014-.009a.52.52,0,0,1,.04.037.519.519,0,0,0,.037.04c.049.031-.06-.1-.011-.014.006.009.077.126.074.128-.02.011-.037-.12-.017-.031.009.031.017.06.026.091a.407.407,0,0,0,.011.057c-.009-.083-.014-.1-.009-.054a.366.366,0,0,1,0,.057.571.571,0,0,0,1.142,0,1.543,1.543,0,0,0-.8-1.342,1.854,1.854,0,0,0-.874-.186h-2.1a.58.58,0,0,0-.571.571v3.4c.285-.166.574-.328.859-.494-.18-.1-.363-.2-.542-.3a1.012,1.012,0,0,0-1.513,0c-.18.1-.363.2-.542.3.285.166.574.328.859.494v-3.4a.58.58,0,0,0-.571-.571c-.748,0-1.5-.014-2.249,0a1.549,1.549,0,0,0-1.524,1.556v3.908c0,.645-.017,1.293,0,1.941A1.552,1.552,0,0,0,490.1,593.4h6.489a1.564,1.564,0,0,0,1.273-.682,1.883,1.883,0,0,0,.257-1.142v-5.561a.576.576,0,0,0-.571-.571A.583.583,0,0,0,496.971,586.011Z" transform="translate(-488.533 -584.478)" fill="#fff"/>
    </g>
  </g>
  <g id="Group_8772" data-name="Group 8772" transform="translate(15.536 13.064)">
    <g id="Group_8771" data-name="Group 8771">
      <path id="Path_14378" data-name="Path 14378" d="M603.121,585.253v3.4c.285-.166.574-.328.859-.494-.18-.1-.363-.2-.542-.3a1.012,1.012,0,0,0-1.513,0c-.18.1-.362.2-.542.3.285.166.574.328.859.494v-3.4l-.571.571h2.024a.571.571,0,1,0,0-1.142h-2.024a.58.58,0,0,0-.571.571v3.4a.577.577,0,0,0,.859.494l1.011-.562h-.577l1.011.562a.577.577,0,0,0,.859-.494v-3.4a.571.571,0,0,0-1.142,0Z" transform="translate(-601.1 -584.682)" fill="#fff"/>
    </g>
  </g>
  <g id="Group_8774" data-name="Group 8774" transform="translate(11.323 5.285)">
    <g id="Group_8773" data-name="Group 8773">
      <path id="Path_14379" data-name="Path 14379" d="M455.521,312.753v3.4c.285-.166.574-.328.859-.494-.18-.1-.363-.2-.542-.3a1.012,1.012,0,0,0-1.513,0c-.18.1-.363.2-.542.3.285.166.574.328.859.494v-3.4l-.571.571h2.024a.571.571,0,0,0,0-1.142h-2.024a.58.58,0,0,0-.571.571v3.4a.577.577,0,0,0,.859.494l1.011-.562h-.577l1.011.562a.577.577,0,0,0,.859-.494v-3.4a.571.571,0,1,0-1.142,0Z" transform="translate(-453.5 -312.182)" fill="#fff"/>
    </g>
  </g>
  <g id="Group_8776" data-name="Group 8776" transform="translate(8.107 5.279)">
    <g id="Group_8775" data-name="Group 8775">
      <path id="Path_14380" data-name="Path 14380" d="M349.274,313.511v5.878c0,.011-.009.054,0,.063-.023-.037.023-.108,0-.031-.011.037-.017.126-.046.151,0,0,.066-.123.009-.031a.452.452,0,0,0-.029.051c-.069.108.054-.046-.017.023-.017.017-.111.123-.054.06s.017-.011,0,0-.054.034-.083.049c-.114.06.069-.014-.026.009-.043.011-.091.02-.134.034.091-.031.034,0,0,0-.614,0-1.228,0-1.844,0h-4.673l-.06,0c-.077,0,.111.026.037.006-.049-.011-.1-.029-.146-.04s.054.014.051.023a.691.691,0,0,1-.066-.034.167.167,0,0,0-.049-.029c-.066-.02.057.026.04.034s-.1-.094-.108-.1c-.026-.026-.046-.023,0,0,.026.034.029.037.011.014s-.02-.031-.031-.046a.7.7,0,0,1-.054-.1c.017-.011.037.12.017.031-.006-.017-.011-.037-.017-.054l-.017-.074c-.017-.063.011.057.009.057s0-.086,0-.08v-5.852c0-.02.014-.131,0-.046s.014-.051.02-.074l.023-.071c.006,0-.06.114-.011.034.023-.034.049-.074.069-.111.026-.057-.026.049-.034.043l.049-.054a.482.482,0,0,0,.04-.037c.043-.057-.091.054-.029.02.04-.023.089-.049.126-.074s-.049.029-.051.02a.509.509,0,0,1,.071-.023c.023-.006.168-.037.074-.02s.02,0,.051,0c.14,0,.283,0,.422,0h1.813l-.571-.571v3.4a.577.577,0,0,0,.859.494l1.011-.562h-.577l1.011.562a.577.577,0,0,0,.859-.494v-3.4l-.571.571c.748,0,1.5-.014,2.249,0a.753.753,0,0,1,.077,0s-.146-.029-.02,0a.381.381,0,0,1,.054.014c.02.006.111.051.037.009s-.014-.006,0,0,.054.031.08.046c.066.04.011.029.017.009-.034-.026-.037-.029-.014-.009a.519.519,0,0,1,.04.037.5.5,0,0,0,.037.04c.049.031-.06-.1-.011-.014.006.009.077.126.074.128-.02.011-.037-.12-.017-.031l.026.091a.4.4,0,0,0,.011.057c-.009-.083-.014-.1-.009-.054a.127.127,0,0,1,.009.057.571.571,0,0,0,1.142,0,1.543,1.543,0,0,0-.8-1.342,1.854,1.854,0,0,0-.874-.186h-2.1a.58.58,0,0,0-.571.571v3.4c.285-.166.574-.328.859-.494-.18-.1-.363-.2-.542-.3a1.012,1.012,0,0,0-1.513,0c-.18.1-.363.2-.542.3.285.166.574.328.859.494v-3.4a.58.58,0,0,0-.571-.571c-.748,0-1.5-.014-2.249,0a1.554,1.554,0,0,0-1.527,1.556v3.908c0,.645-.017,1.293,0,1.941a1.562,1.562,0,0,0,1.559,1.519h6.32a1.669,1.669,0,0,0,1.439-.694,1.883,1.883,0,0,0,.257-1.142v-5.561a.571.571,0,1,0-1.142,0Z" transform="translate(-340.833 -311.978)" fill="#fff"/>
    </g>
  </g>
  <g id="Group_8778" data-name="Group 8778" transform="translate(11.323 5.285)">
    <g id="Group_8777" data-name="Group 8777">
      <path id="Path_14381" data-name="Path 14381" d="M455.521,312.753v3.4c.285-.166.574-.328.859-.494-.18-.1-.363-.2-.542-.3a1.012,1.012,0,0,0-1.513,0c-.18.1-.363.2-.542.3.285.166.574.328.859.494v-3.4l-.571.571h2.024a.571.571,0,0,0,0-1.142h-2.024a.58.58,0,0,0-.571.571v3.4a.577.577,0,0,0,.859.494l1.011-.562h-.577l1.011.562a.577.577,0,0,0,.859-.494v-3.4a.571.571,0,1,0-1.142,0Z" transform="translate(-453.5 -312.182)" fill="#fff"/>
    </g>
  </g>
</svg>
